<?xml version="1.0" encoding="UTF-8"?>
<svg width="24px" height="24px" viewBox="0 0 24 24" version="1.1" xmlns="http://www.w3.org/2000/svg" xmlns:xlink="http://www.w3.org/1999/xlink">
    <title>instagram-sketched</title>
    <g id="Page-1" stroke="none" stroke-width="1" fill="none" fill-rule="evenodd">
        <g id="Desktop-Copy" transform="translate(-144.000000, -1374.000000)" fill="#282939" fill-rule="nonzero">
            <g id="instagram-sketched" transform="translate(144.000000, 1374.000000)">
                <path d="M23.9390022,7.05608717 C23.8827669,5.78087082 23.6765098,4.90417103 23.3810458,4.1444989 C23.0762397,3.33812555 22.6073072,2.61618056 21.9929324,2.01602491 C21.3926623,1.406529 20.665817,0.932924339 19.8686318,0.632938052 C19.1044183,0.337530344 18.2321307,0.131312657 16.9566711,0.0750881135 C15.6716862,0.0141019067 15.2637516,0 12.004671,0 C8.74559041,0 8.33765579,0.0141019067 7.05743354,0.0703264502 C5.78197387,0.126550994 4.90510679,0.332951764 4.14547283,0.628176388 C3.3387625,0.932924339 2.61667976,1.40176734 2.01640958,2.01602491 C1.40679738,2.61618056 0.933285469,3.34288722 0.633058823,4.13992032 C0.337594749,4.90417103 0.131337713,5.77610916 0.0751024411,7.05132551 C0.0141045975,8.33606518 0,8.74392197 0,12.0023808 C0,15.2608397 0.0141045975,15.6686965 0.0703398692,16.9486745 C0.126575141,18.2238908 0.333015295,19.1005906 0.628479369,19.8602628 C0.933285469,20.6666361 1.40679738,21.3885811 2.01640958,21.9887368 C2.61667976,22.5982327 3.34352507,23.0718373 4.14071026,23.3718236 C4.90510679,23.6672313 5.7772113,23.873449 7.05285409,23.9296735 C8.33289322,23.9860812 8.74101095,24 12.0000916,24 C15.2591722,24 15.6671068,23.9860812 16.947329,23.9296735 C18.2227887,23.873449 19.0996558,23.6672313 19.8592897,23.3718236 C21.4725273,22.7482258 22.747987,21.4730095 23.3717037,19.8602628 C23.6669847,19.0960121 23.8734249,18.2238908 23.9296601,16.9486745 C23.9858954,15.6686965 24,15.2608397 24,12.0023808 C24,8.74392197 23.9952374,8.33606518 23.9390022,7.05608717 Z M21.7773334,16.8549059 C21.7256776,18.0270134 21.5287626,18.6599514 21.3646362,19.0819102 C20.961281,20.1274667 20.1313072,20.9572822 19.0855512,21.3605604 C18.663512,21.5246554 18.0258737,21.7215329 16.858122,21.7729957 C15.5920043,21.8294034 15.2122789,21.8433222 12.0094336,21.8433222 C8.80658825,21.8433222 8.42210025,21.8294034 7.16056206,21.7729957 C5.98823091,21.7215329 5.35517209,21.5246554 4.93313287,21.3605604 C4.41272771,21.1682615 3.93903268,20.8635136 3.55454468,20.464997 C3.15595209,20.0758207 2.85114599,19.6069777 2.65881043,19.0866718 C2.49468407,18.6647131 2.29776906,18.0270134 2.24629636,16.8596676 C2.18987797,15.5937915 2.17595649,15.2139554 2.17595649,12.0117211 C2.17595649,8.80948676 2.18987797,8.42507212 2.24629636,7.16395768 C2.29776906,5.99185017 2.49468407,5.35891212 2.65881043,4.93695342 C2.85114599,4.41646446 3.15595209,3.94304287 3.55930725,3.55844515 C3.9483747,3.1599286 4.41730716,2.85518064 4.93789544,2.66306486 C5.35993466,2.49896981 5.99775605,2.30209237 7.16532463,2.25044641 C8.43144228,2.19422186 8.81135082,2.18011996 12.014013,2.18011996 C15.2216209,2.18011996 15.6013464,2.19422186 16.8628846,2.25044641 C18.0352157,2.30209237 18.6682745,2.49896981 19.0903138,2.66306486 C19.6107189,2.85518064 20.0844139,3.1599286 20.4689019,3.55844515 C20.8674945,3.94762145 21.1723006,4.41646446 21.3646362,4.93695342 C21.5287626,5.35891212 21.7256776,5.99642875 21.7773334,7.16395768 C21.8335687,8.42983378 21.8476732,8.80948676 21.8476732,12.0117211 C21.8476732,15.2139554 21.8335687,15.5890298 21.7773334,16.8549059 Z" id="Shape"></path>
                <path d="M12,6 C8.68755938,6 6,8.6873812 6,12 C6,15.3126188 8.68755938,18 12,18 C15.3126188,18 18,15.3126188 18,12 C18,8.6873812 15.3126188,6 12,6 Z M12,15.8920508 C9.85105748,15.8920508 8.10794916,14.1491207 8.10794916,12 C8.10794916,9.8508793 9.85105748,8.10794916 12,8.10794916 C14.1491207,8.10794916 15.8920508,9.8508793 15.8920508,12 C15.8920508,14.1491207 14.1491207,15.8920508 12,15.8920508 L12,15.8920508 Z" id="Shape"></path>
                <path d="M19,5.5 C19,6.32834966 18.3283924,7 17.4999046,7 C16.6716076,7 16,6.32834966 16,5.5 C16,4.67145949 16.6716076,4 17.4999046,4 C18.3283924,4 19,4.67145949 19,5.5 L19,5.5 Z" id="Path"></path>
            </g>
        </g>
    </g>
</svg>