<?xml version="1.0" encoding="UTF-8"?>
<svg width="175px" height="36px" viewBox="0 0 175 36" version="1.1" xmlns="http://www.w3.org/2000/svg" xmlns:xlink="http://www.w3.org/1999/xlink">
    <title>Group 3</title>
    <defs>
        <polygon id="path-1" points="9.99899114 0 29.4970238 0 19.4980327 36 0 36"></polygon>
    </defs>
    <g id="Page-1" stroke="none" stroke-width="1" fill="none" fill-rule="evenodd">
        <g id="Desktop-Copy" transform="translate(-87.000000, -18.000000)">
            <g id="Group-3" transform="translate(87.000000, 18.000000)">
                <path d="M58.8963008,20.7845304 L58.8963008,11.519337 L62.7425713,18.9889503 L64.2095209,18.9889503 L68.0379018,11.5013812 L68.0379018,20.7845304 L69.9342025,20.7845304 L69.9342025,8.21546961 L67.6979988,8.21546961 L63.4760461,16.5828729 L59.2362038,8.21546961 L57,8.21546961 L57,20.7845304 L58.8963008,20.7845304 Z M76.3386901,21 C77.1735397,21 77.9308672,20.8623388 78.6106731,20.5870166 C79.2904791,20.3116943 79.9404688,19.8687845 80.5606428,19.2582873 L80.5606428,19.2582873 L82.0812614,20.7845304 L84.4069133,20.7845304 L81.616131,17.9834254 C82.0931879,17.3370166 82.576208,16.5349908 83.065191,15.5773481 L83.065191,15.5773481 L83.7807762,14.2665746 L81.8129169,14.2665746 L81.3477865,15.1464088 C81.0019205,15.7688766 80.6799072,16.3075507 80.3817465,16.7624309 L80.3817465,16.7624309 L76.6607035,13.0096685 C76.255205,12.5906998 75.9540631,12.213628 75.7572771,11.878453 C75.5604912,11.5432781 75.4620982,11.2021178 75.4620982,10.8549724 C75.4620982,10.4599448 75.5992522,10.1337477 75.8735597,9.87638122 C76.1478672,9.61901475 76.5175864,9.49033149 76.9827168,9.49033149 C77.3762887,9.49033149 77.7251364,9.6160221 78.0292602,9.86740331 C78.3333839,10.1187845 78.4794827,10.4838858 78.4675561,10.9627072 L78.4675561,10.9627072 L80.310188,10.9627072 C80.3221146,10.4000921 80.1968872,9.89732967 79.9345058,9.45441989 C79.6721244,9.01151011 79.2904791,8.65837939 78.7895694,8.39502762 C78.2886598,8.13167586 77.6923389,8 77.0006064,8 C75.9391552,8 75.1102687,8.27232967 74.5139478,8.81698895 C73.917627,9.36164824 73.6194663,10.0469613 73.6194663,10.8729282 C73.6194663,11.3278085 73.7029514,11.7467772 73.8699212,12.1298343 C74.0368909,12.5128913 74.3111989,12.9198895 74.6928441,13.3508287 C73.77451,13.7458564 73.0797957,14.2725598 72.6087022,14.9309392 C72.1376088,15.5893186 71.9020619,16.337477 71.9020619,17.1754144 C71.9020619,17.9415286 72.0869212,18.6118785 72.4566404,19.1864641 C72.8263596,19.7610497 73.3421771,20.2069521 74.0040934,20.5241713 C74.6660097,20.8413904 75.4442086,21 76.3386901,21 Z M76.3744694,19.4019337 C75.5873257,19.4019337 74.9522438,19.1804788 74.4692238,18.7375691 C73.9862038,18.2946593 73.7446938,17.7380295 73.7446938,17.0676796 C73.7446938,16.5050645 73.9146452,16.0052946 74.2545482,15.5683702 C74.5944512,15.1314457 75.1102687,14.769337 75.8020012,14.4820442 L75.8020012,14.4820442 L79.3620376,18.0552486 C78.9088338,18.53407 78.4437034,18.8782228 77.9666465,19.0877072 C77.4895895,19.2971915 76.9588641,19.4019337 76.3744694,19.4019337 Z M87.8238326,20.7845304 L87.8238326,15.1643646 L93.8884172,15.1643646 L93.8884172,20.7845304 L95.784718,20.7845304 L95.784718,8.21546961 L93.8884172,8.21546961 L93.8884172,13.6022099 L87.8238326,13.6022099 L87.8238326,8.21546961 L85.9275318,8.21546961 L85.9275318,20.7845304 L87.8238326,20.7845304 Z M104.729533,20.7845304 L104.729533,11.519337 L108.575804,18.9889503 L110.042753,18.9889503 L113.871134,11.5013812 L113.871134,20.7845304 L115.767435,20.7845304 L115.767435,8.21546961 L113.531231,8.21546961 L109.309278,16.5828729 L105.069436,8.21546961 L102.833232,8.21546961 L102.833232,20.7845304 L104.729533,20.7845304 Z M124.086113,21 C125.32646,21 126.411765,20.7246777 127.342025,20.1740331 C128.272286,19.6233886 128.996816,18.860267 129.515616,17.8846685 C130.034415,16.90907 130.293814,15.7808471 130.293814,14.5 C130.293814,13.2191529 130.034415,12.09093 129.515616,11.1153315 C128.996816,10.139733 128.272286,9.37661143 127.342025,8.82596685 C126.411765,8.27532227 125.32646,8 124.086113,8 C122.845765,8 121.760461,8.27532227 120.8302,8.82596685 C119.899939,9.37661143 119.172428,10.139733 118.647665,11.1153315 C118.122903,12.09093 117.860522,13.2191529 117.860522,14.5 C117.860522,15.7808471 118.122903,16.90907 118.647665,17.8846685 C119.172428,18.860267 119.899939,19.6233886 120.8302,20.1740331 C121.760461,20.7246777 122.845765,21 124.086113,21 Z M124.086113,19.2941989 C123.227411,19.2941989 122.476046,19.1026703 121.832019,18.7196133 C121.187993,18.3365562 120.690065,17.7859116 120.338235,17.0676796 C119.986406,16.3494475 119.810491,15.4935543 119.810491,14.5 C119.810491,13.5064457 119.986406,12.6505525 120.338235,11.9323204 C120.690065,11.2140884 121.187993,10.6634438 121.832019,10.2803867 C122.476046,9.89732967 123.227411,9.7058011 124.086113,9.7058011 C124.944815,9.7058011 125.693198,9.89732967 126.331261,10.2803867 C126.969325,10.6634438 127.467253,11.2140884 127.825045,11.9323204 C128.182838,12.6505525 128.361734,13.5064457 128.361734,14.5 C128.361734,15.4935543 128.182838,16.3494475 127.825045,17.0676796 C127.467253,17.7859116 126.969325,18.3365562 126.331261,18.7196133 C125.693198,19.1026703 124.944815,19.2941989 124.086113,19.2941989 Z M136.680412,20.7845304 L136.680412,9.75966851 L140.365676,9.75966851 L140.365676,8.21546961 L131.080958,8.21546961 L131.080958,9.75966851 L134.784112,9.75966851 L134.784112,20.7845304 L136.680412,20.7845304 Z M147.360522,21 C148.600869,21 149.686173,20.7246777 150.616434,20.1740331 C151.546695,19.6233886 152.271225,18.860267 152.790024,17.8846685 C153.308824,16.90907 153.568223,15.7808471 153.568223,14.5 C153.568223,13.2191529 153.308824,12.09093 152.790024,11.1153315 C152.271225,10.139733 151.546695,9.37661143 150.616434,8.82596685 C149.686173,8.27532227 148.600869,8 147.360522,8 C146.120174,8 145.03487,8.27532227 144.104609,8.82596685 C143.174348,9.37661143 142.446836,10.139733 141.922074,11.1153315 C141.397312,12.09093 141.13493,13.2191529 141.13493,14.5 C141.13493,15.7808471 141.397312,16.90907 141.922074,17.8846685 C142.446836,18.860267 143.174348,19.6233886 144.104609,20.1740331 C145.03487,20.7246777 146.120174,21 147.360522,21 Z M147.360522,19.2941989 C146.501819,19.2941989 145.750455,19.1026703 145.106428,18.7196133 C144.462401,18.3365562 143.964474,17.7859116 143.612644,17.0676796 C143.260814,16.3494475 143.0849,15.4935543 143.0849,14.5 C143.0849,13.5064457 143.260814,12.6505525 143.612644,11.9323204 C143.964474,11.2140884 144.462401,10.6634438 145.106428,10.2803867 C145.750455,9.89732967 146.501819,9.7058011 147.360522,9.7058011 C148.219224,9.7058011 148.967606,9.89732967 149.60567,10.2803867 C150.243734,10.6634438 150.741662,11.2140884 151.099454,11.9323204 C151.457247,12.6505525 151.636143,13.5064457 151.636143,14.5 C151.636143,15.4935543 151.457247,16.3494475 151.099454,17.0676796 C150.741662,17.7859116 150.243734,18.3365562 149.60567,18.7196133 C148.967606,19.1026703 148.219224,19.2941989 147.360522,19.2941989 Z M157.5755,20.7845304 L157.5755,15.7209945 L159.811704,15.7209945 L162.244694,20.7845304 L164.445118,20.7845304 L161.779563,15.4516575 C162.650192,15.1763352 163.291237,14.7214549 163.702699,14.0870166 C164.11416,13.4525783 164.319891,12.7463167 164.319891,11.968232 C164.319891,11.2739411 164.164847,10.6424954 163.85476,10.073895 C163.544674,9.50529464 163.070598,9.05340701 162.432535,8.71823204 C161.794471,8.38305708 160.980493,8.21546961 159.9906,8.21546961 L159.9906,8.21546961 L155.6792,8.21546961 L155.6792,20.7845304 L157.5755,20.7845304 Z M159.883263,14.2845304 L157.5755,14.2845304 L157.5755,9.81353591 L159.865373,9.81353591 C160.747928,9.81353591 161.385992,10.0140424 161.779563,10.4150552 C162.173135,10.8160681 162.369921,11.3517496 162.369921,12.0220994 C162.369921,12.6924493 162.170153,13.2371087 161.770619,13.6560773 C161.371084,14.075046 160.741965,14.2845304 159.883263,14.2845304 L159.883263,14.2845304 Z M170.688599,21 C171.630786,21 172.423893,20.8294199 173.06792,20.4882597 C173.711947,20.1470994 174.194967,19.7041897 174.51698,19.1595304 C174.838993,18.6148711 175,18.0253223 175,17.390884 C175,16.6726519 174.853901,16.0801105 174.561704,15.6132597 C174.269507,15.1464088 173.878916,14.769337 173.389933,14.4820442 C172.90095,14.1947514 172.346372,13.9493554 171.726198,13.7458564 C171.082171,13.5184162 170.509703,13.3179098 170.008793,13.144337 C169.507884,12.9707643 169.114312,12.752302 168.828078,12.4889503 C168.541844,12.2255985 168.398727,11.8485267 168.398727,11.3577348 C168.398727,10.8070902 168.592531,10.376151 168.980139,10.0649171 C169.367748,9.75368326 169.859713,9.60405155 170.456034,9.6160221 C170.921164,9.6160221 171.314736,9.71178636 171.63675,9.90331492 C171.958763,10.0948435 172.203255,10.3372468 172.370224,10.6305249 C172.537194,10.9238029 172.620679,11.2320442 172.620679,11.5552486 L172.620679,11.5552486 L174.624318,11.5552486 C174.612391,10.8489871 174.433495,10.229512 174.087629,9.6968232 C173.741763,9.16413442 173.261724,8.74815839 172.647514,8.44889503 C172.033303,8.14963166 171.320699,8 170.509703,8 C169.68678,8 168.968213,8.14663906 168.354002,8.43991713 C167.739792,8.7331952 167.262735,9.14318602 166.922832,9.6698895 C166.582929,10.196593 166.418941,10.8130755 166.430867,11.519337 C166.430867,12.3572744 166.672377,13.0336096 167.155397,13.5483425 C167.638417,14.0630755 168.362947,14.4820442 169.328987,14.8052486 C169.81797,14.9728361 170.283101,15.128453 170.724378,15.2720994 C171.165656,15.4157459 171.556246,15.5773481 171.896149,15.7569061 C172.236052,15.9364641 172.504397,16.1639043 172.701183,16.4392265 C172.897968,16.7145488 172.996361,17.0736648 172.996361,17.5165746 C172.996361,18.0672192 172.790631,18.5191068 172.379169,18.8722376 C171.967708,19.2253683 171.398221,19.4019337 170.67071,19.4019337 C169.847787,19.4019337 169.209723,19.1685083 168.756519,18.7016575 C168.303315,18.2348066 168.07075,17.6662062 168.058824,16.9958564 L168.058824,16.9958564 L166.055185,16.9958564 C166.067112,17.8218232 166.266879,18.53407 166.654488,19.1325967 C167.042096,19.7311234 167.581767,20.191989 168.273499,20.5151934 C168.965232,20.8383978 169.770265,21 170.688599,21 Z" id="M&amp;HMOTORS" fill="#FFFFFF" fill-rule="nonzero"></path>
                <path d="M56.7513666,30.8839779 L56.7513666,25.5759669 L58.8444592,29.9171271 L59.4079841,29.9171271 L61.5010767,25.5662983 L61.5010767,30.8839779 L62.2524433,30.8839779 L62.2524433,24.1160221 L61.3669041,24.1160221 L59.1306941,28.8342541 L56.8765943,24.1160221 L56,24.1160221 L56,30.8839779 L56.7513666,30.8839779 Z M66.4207388,31 C67.0409145,31 67.5820773,30.853361 68.0442273,30.5600829 C68.5063772,30.2668048 68.8656619,29.8558932 69.1220805,29.3273481 C69.3784991,28.798803 69.5067086,28.1896869 69.5067086,27.5 C69.5067086,26.8103131 69.3784991,26.2028085 69.1220805,25.6774862 C68.8656619,25.1521639 68.5063772,24.7412523 68.0442273,24.4447514 C67.5820773,24.1482505 67.0409145,24 66.4207388,24 C65.8065266,24 65.2683451,24.1482505 64.8061951,24.4447514 C64.3440452,24.7412523 63.9832698,25.1521639 63.7238695,25.6774862 C63.4644691,26.2028085 63.3347689,26.8103131 63.3347689,27.5 C63.3347689,28.1896869 63.4644691,28.798803 63.7238695,29.3273481 C63.9832698,29.8558932 64.3440452,30.2668048 64.8061951,30.5600829 C65.2683451,30.853361 65.8065266,31 66.4207388,31 Z M66.4207388,30.2845304 C65.9615702,30.2845304 65.5575617,30.1733425 65.2087129,29.9509669 C64.8598642,29.7285912 64.5885372,29.4095304 64.3947325,28.9937845 C64.2009278,28.5780387 64.1040252,28.0801105 64.1040252,27.5 C64.1040252,26.9198895 64.2009278,26.4235727 64.3947325,26.0110497 C64.5885372,25.5985267 64.8598642,25.2810773 65.2087129,25.0587017 C65.5575617,24.836326 65.9615702,24.7251381 66.4207388,24.7251381 C66.8799074,24.7251381 67.2839159,24.836326 67.6327646,25.0587017 C67.9816134,25.2810773 68.2529404,25.5985267 68.4467451,26.0110497 C68.6405498,26.4235727 68.7374524,26.9198895 68.7374524,27.5 C68.7374524,28.0801105 68.6405498,28.5780387 68.4467451,28.9937845 C68.2529404,29.4095304 67.9816134,29.7285912 67.6327646,29.9509669 C67.2839159,30.1733425 66.8799074,30.2845304 66.4207388,30.2845304 Z M71.3404009,30.8839779 L71.3404009,28.089779 L72.6284578,28.089779 L73.8986251,30.8839779 L74.7841643,30.8839779 L73.4156038,27.9737569 C73.8628458,27.8319521 74.1923142,27.5902394 74.4040086,27.2486188 C74.615703,26.9069981 74.7215504,26.5234807 74.7215504,26.0980663 C74.7215504,25.730663 74.64701,25.395488 74.4979294,25.0925414 C74.3488489,24.7895948 74.1192644,24.551105 73.8091767,24.3770718 C73.4990891,24.2030387 73.0995526,24.1160221 72.6105682,24.1160221 L72.6105682,24.1160221 L70.5890343,24.1160221 L70.5890343,30.8839779 L71.3404009,30.8839779 Z M72.5568991,27.4516575 L71.3404009,27.4516575 L71.3404009,24.8024862 L72.5479543,24.8024862 C73.0429023,24.8024862 73.3992048,24.9201197 73.6168627,25.1553867 C73.8345206,25.3906538 73.9433493,25.7081031 73.9433493,26.1077348 C73.9433493,26.5009208 73.8330295,26.8232044 73.6123903,27.0745856 C73.391751,27.3259669 73.0399205,27.4516575 72.5568991,27.4516575 L72.5568991,27.4516575 Z M79.7664403,30.8839779 L79.7664403,30.2168508 L76.6446911,30.2168508 L76.6446911,27.7997238 L79.4980951,27.7997238 L79.4980951,27.1422652 L76.6446911,27.1422652 L76.6446911,24.7831492 L79.7664403,24.7831492 L79.7664403,24.1160221 L75.8933245,24.1160221 L75.8933245,30.8839779 L79.7664403,30.8839779 Z M83.6842803,31 C84.3998675,31 84.9827728,30.8162983 85.4329965,30.448895 C85.8832203,30.0814917 86.1709458,29.5722836 86.2961736,28.9212707 L86.2961736,28.9212707 L85.4643035,28.9212707 C85.368892,29.3337937 85.1735962,29.6641345 84.8784164,29.9122928 C84.5832367,30.1604512 84.1851913,30.2845304 83.6842803,30.2845304 C83.2370383,30.2845304 82.8464471,30.1733425 82.5125062,29.9509669 C82.1785654,29.7285912 81.9206561,29.4095304 81.7387775,28.9937845 C81.556899,28.5780387 81.4659599,28.0801105 81.4659599,27.5 C81.4659599,26.9198895 81.556899,26.4219613 81.7387775,26.0062155 C81.9206561,25.5904696 82.1785654,25.2714088 82.5125062,25.0490331 C82.8464471,24.8266575 83.2370383,24.7154696 83.6842803,24.7154696 C84.1851913,24.7154696 84.5832367,24.8427716 84.8784164,25.0973757 C85.1735962,25.3519798 85.368892,25.6887661 85.4643035,26.1077348 L85.4643035,26.1077348 L86.2961736,26.1077348 C86.1709458,25.4438306 85.8832203,24.9265654 85.4329965,24.5559392 C84.9827728,24.1853131 84.3998675,24 83.6842803,24 C83.0700681,24 82.5408314,24.1482505 82.0965711,24.4447514 C81.6523109,24.7412523 81.3079346,25.1521639 81.0634421,25.6774862 C80.8189497,26.2028085 80.6967037,26.8103131 80.6967037,27.5 C80.6967037,28.1961326 80.8189497,28.80686 81.0634421,29.3321823 C81.3079346,29.8575046 81.6523109,30.2668048 82.0965711,30.5600829 C82.5408314,30.853361 83.0700681,31 83.6842803,31 Z M87.6200099,30.8839779 L88.2014245,29.1436464 L90.8669869,29.1436464 L91.4394567,30.8839779 L92.2355475,30.8839779 L89.9367235,24.1160221 L89.1406328,24.1160221 L86.832864,30.8839779 L87.6200099,30.8839779 Z M90.6433659,28.4861878 L88.4250456,28.4861878 L89.5342057,25.140884 L90.6433659,28.4861878 Z M93.9171774,30.8839779 L93.9171774,25.5759669 L96.01027,29.9171271 L96.5737949,29.9171271 L98.6668875,25.5662983 L98.6668875,30.8839779 L99.4182541,30.8839779 L99.4182541,24.1160221 L98.5327149,24.1160221 L96.2965049,28.8342541 L94.0424052,24.1160221 L93.1658108,24.1160221 L93.1658108,30.8839779 L93.9171774,30.8839779 Z M103.01408,30.8839779 C103.449395,30.8839779 103.819115,30.8017956 104.12324,30.6374309 C104.427365,30.4730663 104.656949,30.2506906 104.811993,29.9703039 C104.967037,29.6899171 105.044559,29.3789135 105.044559,29.0372928 C105.044559,28.7601289 104.989399,28.5055249 104.879079,28.2734807 C104.768759,28.0414365 104.618188,27.8480663 104.427365,27.6933702 C104.236541,27.538674 104.024847,27.4387661 103.792281,27.3936464 C104.096405,27.2969613 104.357297,27.1229282 104.574954,26.871547 C104.792612,26.6201657 104.901441,26.2753223 104.901441,25.8370166 C104.901441,25.5147329 104.829882,25.2230663 104.686765,24.9620166 C104.543648,24.7009669 104.327481,24.4947053 104.038264,24.343232 C103.749047,24.1917588 103.3838,24.1160221 102.942521,24.1160221 L102.942521,24.1160221 L100.74209,24.1160221 L100.74209,30.8839779 L103.01408,30.8839779 Z M102.888852,27.0745856 L101.493457,27.0745856 L101.493457,24.7928177 L102.862018,24.7928177 C103.285407,24.7928177 103.602949,24.8959484 103.814643,25.1022099 C104.026337,25.3084715 104.132185,25.5824125 104.132185,25.9240331 C104.132185,26.2849908 104.024847,26.566989 103.810171,26.7700276 C103.595494,26.9730663 103.288388,27.0745856 102.888852,27.0745856 L102.888852,27.0745856 Z M102.933576,30.2071823 L101.493457,30.2071823 L101.493457,27.7223757 L102.915687,27.7223757 C103.333112,27.7223757 103.664071,27.8367864 103.908564,28.0656077 C104.153056,28.2944291 104.275302,28.5989871 104.275302,28.9792818 C104.275302,29.3660221 104.159019,29.6673573 103.926454,29.8832873 C103.693888,30.0992173 103.362929,30.2071823 102.933576,30.2071823 L102.933576,30.2071823 Z M110,30.8839779 L110,30.2168508 L106.878251,30.2168508 L106.878251,27.7997238 L109.731655,27.7997238 L109.731655,27.1422652 L106.878251,27.1422652 L106.878251,24.7831492 L110,24.7831492 L110,24.1160221 L106.126884,24.1160221 L106.126884,30.8839779 L110,30.8839779 Z" id="MORECAMBE" fill="#66F4FF" fill-rule="nonzero"></path>
                <g id="Group-2">
                    <g id="cogs" transform="translate(20.558532, 0.000000)">
                        <g id="Mask" fill="#66F4FF" fill-rule="nonzero">
                            <polygon id="path-1" points="9.99899114 0 29.4970238 0 19.4980327 36 0 36"></polygon>
                        </g>
                        <g id="wheel-Clipped">
                            <mask id="mask-2" fill="white">
                                <use xlink:href="#path-1"></use>
                            </mask>
                            <g id="path-1"></g>
                            <g id="wheel" opacity="0.161179315" mask="url(#mask-2)">
                                <g transform="translate(0.000000, 3.600000)" id="Group">
                                    <g>
                                        <path d="M18.5660535,0.506545308 C12.8038982,-1.04750301 6.67918884,1.04525189 3.0477977,5.80933876 C-0.583593432,10.5731991 -1.00668561,17.0700726 1.97611419,22.270471 C3.92368852,25.6873385 7.14819099,28.17812 10.9310401,29.1877984 C12.1838881,29.5266987 13.4752194,29.6988673 14.772627,29.7 C20.0380992,29.6893527 24.8989332,26.8549136 27.5275058,22.2620891 C30.1558534,17.6692647 30.1533779,12.0144317 27.5209793,7.42409919 C25.5734051,4.00700517 22.3489026,1.51622363 18.5660535,0.506545308 Z M28.0451185,18.4336028 C26.6039046,23.8469466 22.0653408,27.853265 16.5453383,28.5849817 C11.0255607,29.3164717 5.6113312,26.628829 2.82747468,21.7754863 C0.373765108,17.490753 0.373089946,12.2149175 2.82522417,7.92950472 C5.27758346,3.64409188 9.81187132,0.99790547 14.7249167,0.984539736 C15.9356804,0.985445942 17.141043,1.14628765 18.3103978,1.46276074 C21.836916,2.41376585 24.8435711,4.73600331 26.6691688,7.91863092 C28.4947665,11.1014849 28.9894243,14.8837576 28.0444435,18.4336028 L28.0451185,18.4336028 Z" id="Shape" fill="#000000" fill-rule="nonzero"></path>
                                        <path d="M8.7589233,4.28050213 C9.15322034,4.05631603 9.55911436,3.85324899 9.97498182,3.67199706 C10.1410504,3.59958914 10.2558605,3.4440978 10.2760392,3.2640063 C10.2964499,3.0839148 10.2189821,2.90660822 10.0733242,2.79915671 C9.92766613,2.69147313 9.73562031,2.66989001 9.56978361,2.74229794 C9.1202849,2.93840271 8.68168749,3.15794722 8.25538273,3.40023532 C5.77734165,4.81938412 3.83322525,7.013205 2.72200333,9.64472233 C2.61252791,9.90255955 2.7329045,10.2003139 2.99058918,10.309622 C3.24850585,10.4189301 3.54585225,10.2987144 3.65509575,10.0406452 C4.68003614,7.61312317 6.47316,5.58941458 8.7589233,4.28050213 Z" id="Path" fill="#000000" fill-rule="nonzero"></path>
                                        <path d="M26.5072843,19.3878873 C26.3839614,19.3384836 26.2446736,19.3373954 26.1201939,19.3846228 C25.9959455,19.4318501 25.8964542,19.5236932 25.8441635,19.6399117 C24.821023,21.9170543 23.0313371,23.8152897 20.7497478,25.042766 C19.9542805,25.4717298 19.110687,25.8162502 18.2342384,26.0700156 C17.9947652,26.1392245 17.8450656,26.362956 17.8827798,26.5960459 C17.9202625,26.8289181 18.1338217,27.0008518 18.3844008,27.0000171 C18.4346092,27.0004166 18.4848176,26.9932346 18.5329436,26.9790881 C19.4811185,26.7039941 20.3941244,26.3311808 21.2553024,25.8671774 C23.7273132,24.5363233 25.6664674,22.4789947 26.7752166,20.0112015 C26.8841943,19.7694061 26.764342,19.4903946 26.5072843,19.3878873 L26.5072843,19.3878873 Z" id="Path" fill="#000000" fill-rule="nonzero"></path>
                                        <path d="M20.6421466,22.1709722 C20.6489382,22.1664218 20.6568617,22.1659668 20.6638797,22.161644 C20.6754254,22.1507232 20.6862919,22.1393474 20.6964793,22.127289 C23.2623418,20.0084293 24.5273883,16.6878281 24.0257163,13.3886136 C24.0257163,13.3826981 24.0223205,13.3776928 24.0223205,13.3722324 C23.6782134,11.0765924 22.4914963,8.99345277 20.6960266,7.53279772 C20.6835753,7.52233203 20.6767837,7.50799845 20.6634269,7.49844283 C20.6579937,7.49503003 20.6514284,7.49457499 20.6459952,7.49116228 C18.0436845,5.38549848 14.5256414,4.82421559 11.4024159,6.01640127 C11.3974354,6.01890399 11.3920021,6.01640127 11.3865688,6.02049658 L11.38023,6.02550193 C10.461328,6.36495633 9.60717248,6.86003188 8.85443801,7.4891146 C8.84764641,7.493665 8.83972284,7.49412 8.83270492,7.49844283 C8.82138557,7.50936361 8.81029268,7.52073939 8.8001053,7.53279772 C6.23446932,9.65165755 4.96964901,12.9724862 5.47132103,16.2714732 C5.47132103,16.2773887 5.4747168,16.2823941 5.4747168,16.2878544 C5.96869175,19.6327998 8.21399117,22.4524099 11.3530637,23.6700774 C14.4921362,24.8875174 18.0400624,24.3150862 20.6421466,22.1709722 L20.6421466,22.1709722 Z M16.7039304,17.1342153 C16.6901209,17.1419508 16.6765377,17.1503689 16.6634072,17.1594695 L16.2411968,17.4081449 L15.3766275,17.910046 C15.2426068,17.9901317 15.1547689,18.1298268 15.1402802,18.285903 C14.8188116,18.3198029 14.4939473,18.3091097 14.1754218,18.2540507 C14.1034309,18.0128834 13.9431494,17.8083462 13.7269505,17.681392 L12.8030679,17.145136 C12.5843788,17.020002 12.3265248,16.9831444 12.0820276,17.0422987 C11.9579679,16.894868 11.8465858,16.7369717 11.7492397,16.5706573 C11.6555158,16.4043428 11.5760542,16.2300653 11.5117604,16.0503273 C11.6856252,15.8658116 11.7822921,15.621004 11.7813866,15.3668682 L11.7813866,14.2932186 C11.7818393,14.0402204 11.6853987,13.7967779 11.5122133,13.6133997 C11.6247273,13.3110305 11.7782172,13.025725 11.9681552,12.7654463 C12.1091939,12.8341562 12.2749087,12.8268757 12.4093821,12.7461074 L12.7759016,12.5329246 C12.7813349,12.5297393 12.7876737,12.5292843 12.793107,12.5258716 C12.8071429,12.518136 12.8207261,12.5097179 12.8336301,12.5006172 L13.256067,12.2519419 L14.1204099,11.7500408 C14.2544306,11.669955 14.3422684,11.53026 14.3569836,11.3741838 C14.6770938,11.3402839 15.0003734,11.3507496 15.3177671,11.4051261 C15.3911162,11.6469759 15.5532088,11.8517406 15.7712188,11.9775571 L16.6921583,12.5154058 C16.9115266,12.6421325 17.1711917,12.6794451 17.4172737,12.6198358 C17.5402014,12.7670389 17.6506779,12.9240252 17.748024,13.0894295 C17.841748,13.255744 17.9212096,13.4300215 17.9855033,13.6097595 C17.8114122,13.7942752 17.7149717,14.0390828 17.7158771,14.2932186 L17.7158771,15.3668682 C17.7154244,15.6198664 17.8116386,15.8633089 17.9848242,16.0466871 C17.8720837,16.3495113 17.7183674,16.6350443 17.5279765,16.8955506 C17.3867115,16.8307084 17.2230342,16.8375339 17.0878816,16.9139794 L16.7267954,17.1242045 C16.7193247,17.1282998 16.7114011,17.1303474 16.7039304,17.1342153 Z M9.82971022,21.5923981 L12.3088667,18.0044653 L13.2327492,18.5402663 L11.38023,22.4901776 L9.82971022,21.5923981 Z M6.40267427,13.9235045 L10.7920784,14.2932186 L10.7920784,15.3689159 L6.397241,15.7370373 C6.3340793,15.134119 6.33566396,14.5261953 6.40199512,13.9235045 L6.40267427,13.9235045 Z M19.7060392,8.00898948 L17.1868124,11.6551665 L16.2629299,11.1189105 L18.1451056,7.10734221 C18.6965827,7.35123973 19.2202142,7.65429151 19.7069448,8.01103711 L19.7060392,8.00898948 Z M23.0941367,15.7345347 L18.704959,15.3668682 L18.704959,14.291171 L23.1000227,13.9230495 C23.1631845,14.5259678 23.1615998,15.1338915 23.0950422,15.7365823 L23.0941367,15.7345347 Z M20.4709986,21.0115489 L18.1679707,17.681392 C18.486949,17.2943868 18.7389169,16.8564178 18.9136871,16.3856864 L22.9293275,16.7226381 C22.5548845,18.3671264 21.6986915,19.8609987 20.4709986,21.0115489 L20.4709986,21.0115489 Z M22.0298946,10.6054061 C22.4482565,11.3339134 22.7559155,12.1213475 22.9422315,12.9413164 L18.9141399,13.2789506 C18.8312825,13.0418787 18.7282767,12.8125422 18.6060282,12.5934439 C18.4781199,12.3761658 18.3323271,12.1702635 18.1697818,11.9775571 L20.4748471,8.64762791 C21.0874485,9.21869392 21.6115327,9.87871882 22.0298946,10.6054061 L22.0298946,10.6054061 Z M14.7341431,6.38065494 C15.5756211,6.38224758 16.4121185,6.50988423 17.2157898,6.75946971 L15.4938956,10.429536 C14.9999207,10.3439898 14.4953056,10.3423972 14.0008779,10.4249856 L12.2792101,6.7549194 C13.0745051,6.50806411 13.9019471,6.38202006 14.7341431,6.38065494 L14.7341431,6.38065494 Z M10.5448646,7.5125488 C10.8056616,7.36261555 11.0743821,7.22724331 11.3494415,7.10643213 L13.2289006,11.1202755 L12.7546213,11.397163 L12.3095458,11.6547115 L9.78737596,8.00898948 C10.0307412,7.82993412 10.2838411,7.66430221 10.5448646,7.5125488 Z M9.0262652,8.64853789 L11.3288403,11.9811974 C11.0100884,12.3682028 10.7583468,12.8061717 10.5835766,13.276903 L6.56770994,12.9399513 C6.94170006,11.2945531 7.79811947,9.79977069 9.0262652,8.64853789 Z M7.46736912,19.0546807 C7.04878083,18.3261734 6.74134819,17.5387393 6.55480588,16.7187703 L10.5828975,16.3811361 C10.6666604,16.6177531 10.7705717,16.8466346 10.8934994,17.0650503 C11.020955,17.2816458 11.1665213,17.4870931 11.3283876,17.6788894 L9.02309578,21.0145065 C8.41026803,20.442758 7.88573099,19.782278 7.46736912,19.0546807 L7.46736912,19.0546807 Z M12.283285,22.8947017 L14.0022363,19.2287307 C14.253525,19.2749166 14.508436,19.2994884 14.7637997,19.3022185 C15.0094289,19.2997158 15.2546053,19.2769642 15.4963859,19.2335086 L17.216469,22.9006171 C15.608447,23.3952377 13.8899486,23.39319 12.283285,22.8947017 L12.283285,22.8947017 Z M18.1485014,22.5561573 L16.2692687,18.5398112 L16.743548,18.2629238 L17.1886235,18.0053753 L19.7107934,21.6510973 C19.2258739,22.0096631 18.7029214,22.3133974 18.1516709,22.5561573 L18.1485014,22.5561573 Z" id="Shape" fill="#000000" fill-rule="nonzero"></path>
                                        <path d="M15.0453036,12.6692167 C14.1184891,12.4191795 13.1454145,12.8634068 12.7212479,13.7298469 C12.2970812,14.5962871 12.5398896,15.6439404 13.3012261,16.2318406 C14.0625627,16.8197408 15.130229,16.7842861 15.8515194,16.1472591 C16.5725797,15.5100003 16.746343,14.4486748 16.2664801,13.6121278 C16.001117,13.1461179 15.5613002,12.806401 15.0453036,12.6692167 Z M15.4977787,14.8868771 C15.3626806,15.3936716 14.8655564,15.7127644 14.3523216,15.6219261 C13.8390869,15.530856 13.4798226,15.0602115 13.5247019,14.5374276 C13.5695812,14.0146437 14.0036443,13.6130548 14.5249343,13.6121278 C14.6133119,13.6123596 14.7014594,13.6241779 14.786845,13.6471192 C15.044383,13.7166383 15.2641764,13.8864967 15.3974333,14.1189223 C15.5306902,14.3515797 15.5668237,14.6280342 15.4977787,14.8873405 L15.4977787,14.8868771 Z" id="Shape" fill="#000000" fill-rule="nonzero"></path>
                                        <path d="M11.6200397,2.70010299 C11.6200397,2.9485351 11.4199974,3.15 11.1731151,3.15 C10.9264372,3.15 10.7261905,2.9485351 10.7261905,2.70010299 C10.7261905,2.45146484 10.9264372,2.25 11.1731151,2.25 C11.4199974,2.25 11.6200397,2.45146484 11.6200397,2.70010299 Z" id="Path" fill="#000000" fill-rule="nonzero"></path>
                                    </g>
                                </g>
                            </g>
                        </g>
                    </g>
                    <polygon id="Rectangle" fill="#EBEBEB" fill-rule="nonzero" points="16.7883216 0 26.3685516 0 16.284099 36 6.70386905 36"></polygon>
                    <polygon id="Rectangle" fill="#FFFFFF" fill-rule="nonzero" points="10.3686508 0 12.9608135 0 2.5921627 36 0 36"></polygon>
                </g>
            </g>
        </g>
    </g>
</svg>