<?xml version="1.0" encoding="UTF-8"?>
<svg width="397px" height="291px" viewBox="0 0 397 291" version="1.1" xmlns="http://www.w3.org/2000/svg" xmlns:xlink="http://www.w3.org/1999/xlink">
    <title>undraw_city_driver_jh2h(2)</title>
    <defs>
        <linearGradient x1="-0.0119013698%" y1="49.9807618%" x2="99.9854752%" y2="49.9807618%" id="linearGradient-1">
            <stop stop-color="#808080" stop-opacity="0.25" offset="0%"></stop>
            <stop stop-color="#808080" stop-opacity="0.12" offset="54%"></stop>
            <stop stop-color="#808080" stop-opacity="0.1" offset="100%"></stop>
        </linearGradient>
    </defs>
    <g id="Page-1" stroke="none" stroke-width="1" fill="none" fill-rule="evenodd">
        <g id="Desktop-Copy" transform="translate(-492.000000, -176.000000)">
            <g id="undraw_city_driver_jh2h(2)" transform="translate(492.000000, 176.000000)">
                <ellipse id="Oval" fill="#4B5B8C" fill-rule="nonzero" opacity="0.1" cx="215" cy="284.5" rx="58" ry="6.5"></ellipse>
                <path d="M377.822949,202.612104 C368.782169,221.268918 350.414683,233.744237 331.386838,241.97148 C305.765623,253.051197 277.550631,257.445641 249.723684,255.587108 C244.844749,255.264871 239.982834,254.746343 235.137938,254.031522 C218.30289,251.57126 201.890531,246.787425 186.37015,239.816807 C181.899685,237.797156 177.508643,235.600501 173.197027,233.226843 C166.018269,229.247889 159.139936,224.749556 152.617,219.767795 C150.976316,218.515157 149.358325,217.23075 147.763027,215.914572 C146.656757,215.002325 145.560699,214.069655 144.447621,213.164216 C142.098924,211.254624 139.68215,209.440341 136.986255,208.082182 C136.172824,207.67211 135.338907,207.304005 134.487786,206.979317 C125.950785,203.731989 116.106684,204.957396 107.21908,207.489903 C100.465727,209.399494 93.8859733,212.037522 87.1224083,213.919883 C84.1184769,214.782644 81.0576335,215.433258 77.9624922,215.866918 C71.0497556,216.747561 64.0285517,216.135861 57.3722535,214.073059 L56.8038009,213.896056 C55.8507067,213.596512 54.9055549,213.268602 53.9683456,212.912326 L53.399893,212.694476 C52.4921842,212.345009 51.6037643,211.969444 50.7346331,211.567783 L50.1661805,211.309086 C49.2584717,210.887002 48.3700518,210.44109 47.5009206,209.971351 C47.1877611,209.807963 46.8780055,209.63096 46.5716538,209.464169 C41.6266849,206.702361 37.1317855,203.202631 33.2419506,199.085656 C33.1296216,198.973327 33.0241005,198.857595 32.9015598,198.745266 C32.3603384,198.159794 31.8293288,197.56411 31.3153387,196.954811 C31.1247199,196.730153 30.934101,196.505495 30.7468861,196.274029 C30.1364519,195.527439 29.5475759,194.766098 28.9802579,193.990008 C28.8951602,193.877679 28.8134664,193.761946 28.7317726,193.649617 C26.4060102,190.433192 24.4778738,186.947232 22.98938,183.267701 C22.9417253,183.155372 22.8974745,183.039639 22.8566276,182.92731 C22.4027732,181.758635 21.9886311,180.570672 21.6142012,179.363419 C21.4610254,178.859641 21.3146574,178.342247 21.1853089,177.838469 C21.1410581,177.688697 21.1002112,177.535521 21.0627682,177.38575 C19.2008306,169.992464 19,162.303038 19,154.657863 C19,153.766039 19,152.87535 19,151.985796 C19.0544625,139.619402 19.2450814,127.041966 21.069576,114.845767 C21.069576,114.760669 21.0934033,114.675572 21.107019,114.593878 C21.7176668,110.488017 22.5482807,106.417896 23.5952756,102.401083 C24.6910583,98.1863518 26.0914784,94.0567632 27.7854862,90.044901 C31.9825046,80.1735708 38.0857115,71.1906604 44.862892,62.8647039 C61.9164705,41.9272723 84.3039726,24.3256694 110.507255,17.7595329 C138.742671,10.6691947 170.123298,17.463393 192.898846,35.5960053 C199.842818,41.1239502 206.082181,47.6696633 213.880534,51.9075275 C220.688349,55.5973626 228.656898,57.1257168 235.948068,54.2221842 C241.972985,51.8394493 245.894287,50.6310623 252.661256,50.9952804 C266.67007,51.7856167 280.480666,54.676019 293.630691,59.569722 C294.161701,59.7637447 294.692711,59.9645752 295.220316,60.1654057 C329.501073,73.287467 358.975511,99.3443748 374.286288,132.828607 C374.692488,133.713623 375.086207,134.605447 375.467445,135.504078 C384.600129,156.819344 387.895112,181.827848 377.822949,202.612104 Z" id="Path" fill="#4B5B8C" fill-rule="nonzero" opacity="0.1"></path>
                <path d="M88,84.1382389 L88,213.653935 C85.0014663,214.519725 81.9461229,215.172623 78.8565432,215.607806 C71.956228,216.491541 64.9476404,215.877694 58.3033029,213.807649 L57.7358717,213.630024 C56.7844901,213.329428 55.8410367,213.000367 54.9055114,212.642841 L54.3380802,212.424226 C53.4320025,212.073531 52.545179,211.696648 51.6776096,211.293577 L51.1101784,211.033971 C50.2041007,210.610405 49.3172771,210.162927 48.4497077,209.691539 C48.1371109,209.527578 47.8279119,209.349953 47.5221106,209.182576 C42.5860273,206.411071 38.0992047,202.899053 34.2163594,198.767623 C34.1042322,198.6549 33.9989007,198.538761 33.8765802,198.426037 C33.3363314,197.838509 32.8062759,197.240734 32.2932094,196.629296 C32.1029331,196.403849 31.9126568,196.178402 31.7257782,195.946124 C31.116441,195.196912 30.5286231,194.432898 29.9623245,193.654083 C29.8773797,193.541359 29.7958327,193.42522 29.7142857,193.312497 C27.3927024,190.084778 25.4680307,186.586578 23.9822116,182.894128 C23.9346425,182.781405 23.8904712,182.665265 23.8496977,182.552542 C23.3966588,181.379764 22.9832609,180.187629 22.6095038,178.976138 C22.4566032,178.470591 22.3104982,177.951381 22.1813821,177.445833 C22.1372108,177.295536 22.0964373,177.141822 22.0590616,176.991524 C20.2004697,169.572279 20,161.855855 20,154.183836 C20,153.288881 20,152.395065 20,151.502387 C20.0543647,139.092573 20.244641,126.470975 22.0658572,114.231953 C22.0658572,114.146557 22.0896417,114.061161 22.1032329,113.97918 C22.7127834,109.858903 23.5419048,105.774491 24.5870184,101.743574 L59.2750712,101.743574 L59.2750712,84.1382389 L66.2099635,84.1382389 L66.2099635,70 L81.0990856,70 L81.0990856,84.1382389 L88,84.1382389 Z" id="Path" fill="#4B5B8C" fill-rule="nonzero" opacity="0.1"></path>
                <path d="M377.860386,202.005432 C368.8744,220.524794 350.618232,232.908203 331.705709,241.074833 C306.239776,252.072922 278.195786,256.434991 250.537489,254.59015 C245.688124,254.270287 240.855676,253.755579 236.040144,253.046025 C219.307127,250.603888 202.994238,245.855298 187.567921,238.936034 C183.12455,236.931262 178.760121,234.750791 174.474636,232.394621 C167.339387,228.444981 160.502741,223.979789 154.019338,219.034731 C152.388598,217.791322 150.780413,216.516377 149.194784,215.209896 C148.095218,214.30437 147.005803,213.378571 145.899471,212.479802 C143.565009,210.584279 141.162882,208.783363 138.483326,207.43521 C137.674825,207.028159 136.845962,206.662766 136,206.34047 L136,153.914556 L198.790254,153.914556 L198.790254,165.581653 L226.347053,165.581653 L226.347053,80.2391866 L258.782538,80.2391866 L258.782538,114.365361 L274.826041,114.365361 L274.826041,94.1599628 L288.081724,94.1599628 L288.081724,72.5760021 L294.171624,72.5760021 L294.171624,60 C294.699416,60.1925933 295.227207,60.3919442 295.751615,60.5912951 L295.751615,72.5760021 L301.685884,72.5760021 L301.685884,94.1734781 L314.938184,94.1734781 L314.938184,114.378876 L334.469847,114.378876 L334.469847,191.358741 L365.514805,191.358741 L365.514805,135.374921 L375.519158,135.374921 C384.596492,156.550043 387.871505,181.374301 377.860386,202.005432 Z" id="Path" fill="#4B5B8C" fill-rule="nonzero" opacity="0.1"></path>
                <rect id="Rectangle" fill="#4B5B8C" fill-rule="nonzero" opacity="0.1" x="235" y="92" width="15" height="15"></rect>
                <rect id="Rectangle" fill="#4B5B8C" fill-rule="nonzero" opacity="0.1" x="235" y="123" width="15" height="15"></rect>
                <rect id="Rectangle" fill="#4B5B8C" fill-rule="nonzero" opacity="0.1" x="235" y="153" width="15" height="15"></rect>
                <rect id="Rectangle" fill="#4B5B8C" fill-rule="nonzero" opacity="0.1" x="235" y="184" width="15" height="15"></rect>
                <rect id="Rectangle" fill="#4B5B8C" fill-rule="nonzero" opacity="0.1" x="235" y="213" width="15" height="15"></rect>
                <path d="M250,244 L250,256 C244.982497,255.664303 239.982497,255.124113 235,254.379433 L235,244 L250,244 Z" id="Path" fill="#4B5B8C" fill-rule="nonzero" opacity="0.1"></path>
                <rect id="Rectangle" fill="#4B5B8C" fill-rule="nonzero" opacity="0.1" x="140" y="173" width="51" height="6"></rect>
                <rect id="Rectangle" fill="#4B5B8C" fill-rule="nonzero" opacity="0.1" x="140" y="192" width="51" height="6"></rect>
                <path d="M191,213 L191,219 L153.187481,219 C151.543162,217.861856 149.921586,216.694845 148.322753,215.498969 C147.214031,214.670103 146.115544,213.82268 145,213 L191,213 Z" id="Path" fill="#4B5B8C" fill-rule="nonzero" opacity="0.1"></path>
                <path d="M191,234 L191,240 L186.821429,240 C182.130952,238.15559 177.52381,236.15559 173,234 L191,234 Z" id="Path" fill="#4B5B8C" fill-rule="nonzero" opacity="0.1"></path>
                <rect id="Rectangle" fill="#4B5B8C" fill-rule="nonzero" opacity="0.1" x="275" y="132" width="9" height="9"></rect>
                <rect id="Rectangle" fill="#4B5B8C" fill-rule="nonzero" opacity="0.1" x="69" y="88" width="9" height="9"></rect>
                <rect id="Rectangle" fill="#4B5B8C" fill-rule="nonzero" opacity="0.1" x="69" y="110" width="9" height="9"></rect>
                <rect id="Rectangle" fill="#4B5B8C" fill-rule="nonzero" opacity="0.1" x="69" y="132" width="9" height="9"></rect>
                <rect id="Rectangle" fill="#4B5B8C" fill-rule="nonzero" opacity="0.1" x="69" y="154" width="9" height="9"></rect>
                <rect id="Rectangle" fill="#4B5B8C" fill-rule="nonzero" opacity="0.1" x="69" y="176" width="9" height="9"></rect>
                <rect id="Rectangle" fill="#4B5B8C" fill-rule="nonzero" opacity="0.1" x="69" y="198" width="9" height="9"></rect>
                <rect id="Rectangle" fill="#4B5B8C" fill-rule="nonzero" opacity="0.1" x="310" y="132" width="9" height="9"></rect>
                <rect id="Rectangle" fill="#4B5B8C" fill-rule="nonzero" opacity="0.1" x="275" y="156" width="9" height="9"></rect>
                <rect id="Rectangle" fill="#4B5B8C" fill-rule="nonzero" opacity="0.1" x="310" y="156" width="9" height="9"></rect>
                <rect id="Rectangle" fill="#4B5B8C" fill-rule="nonzero" opacity="0.1" x="275" y="179" width="9" height="9"></rect>
                <rect id="Rectangle" fill="#4B5B8C" fill-rule="nonzero" opacity="0.1" x="310" y="179" width="9" height="9"></rect>
                <rect id="Rectangle" fill="#4B5B8C" fill-rule="nonzero" opacity="0.1" x="275" y="203" width="9" height="9"></rect>
                <rect id="Rectangle" fill="#4B5B8C" fill-rule="nonzero" opacity="0.1" x="310" y="203" width="9" height="9"></rect>
                <rect id="Rectangle" fill="#4B5B8C" fill-rule="nonzero" opacity="0.1" x="275" y="226" width="9" height="9"></rect>
                <rect id="Rectangle" fill="#4B5B8C" fill-rule="nonzero" opacity="0.1" x="310" y="226" width="9" height="9"></rect>
                <polygon id="Path" fill="#4B5B8C" fill-rule="nonzero" opacity="0.1" points="275 254 275 248 284 248 284 253.146192"></polygon>
                <path d="M22,115 L22,121 L59,121 L59,115 L22,115 Z M25.2952095,120.625 L22.5792631,120.625 L22.5792631,115.375 L25.2952095,115.375 L25.2952095,120.625 Z M28.590419,120.625 L25.8744727,120.625 L25.8744727,115.375 L28.590419,115.375 L28.590419,120.625 Z M31.8856286,120.625 L29.1696822,120.625 L29.1696822,115.375 L31.8856286,115.375 L31.8856286,120.625 Z M35.1808381,120.625 L32.4648917,120.625 L32.4648917,115.375 L35.1808381,115.375 L35.1808381,120.625 Z M38.4760476,120.625 L35.7601012,120.625 L35.7601012,115.375 L38.4760476,115.375 L38.4760476,120.625 Z M41.7712571,120.625 L39.0553108,120.625 L39.0553108,115.375 L41.7712571,115.375 L41.7712571,120.625 Z M45.0664667,120.625 L42.3505203,120.625 L42.3505203,115.375 L45.0664667,115.375 L45.0664667,120.625 Z M48.3616762,120.625 L45.6457298,120.625 L45.6457298,115.375 L48.3616762,115.375 L48.3616762,120.625 Z M51.6568857,120.625 L48.9409393,120.625 L48.9409393,115.375 L51.6568857,115.375 L51.6568857,120.625 Z M54.9520952,120.625 L52.2361489,120.625 L52.2361489,115.375 L54.9520952,115.375 L54.9520952,120.625 Z M58.4207369,120.625 L55.5313584,120.625 L55.5313584,115.375 L58.4207369,115.375 L58.4207369,120.625 Z" id="Shape" fill="#4B5B8C" fill-rule="nonzero" opacity="0.1"></path>
                <path d="M22,129 L22,135 L59,135 L59,129 L22,129 Z M25.2952095,134.623824 L22.5792631,134.623824 L22.5792631,129.376176 L25.2952095,129.376176 L25.2952095,134.623824 Z M28.590419,134.623824 L25.8744727,134.623824 L25.8744727,129.376176 L28.590419,129.376176 L28.590419,134.623824 Z M31.8856286,134.623824 L29.1696822,134.623824 L29.1696822,129.376176 L31.8856286,129.376176 L31.8856286,134.623824 Z M35.1808381,134.623824 L32.4648917,134.623824 L32.4648917,129.376176 L35.1808381,129.376176 L35.1808381,134.623824 Z M38.4760476,134.623824 L35.7601012,134.623824 L35.7601012,129.376176 L38.4760476,129.376176 L38.4760476,134.623824 Z M41.7712571,134.623824 L39.0553108,134.623824 L39.0553108,129.376176 L41.7712571,129.376176 L41.7712571,134.623824 Z M45.0664667,134.623824 L42.3505203,134.623824 L42.3505203,129.376176 L45.0664667,129.376176 L45.0664667,134.623824 Z M48.3616762,134.623824 L45.6457298,134.623824 L45.6457298,129.376176 L48.3616762,129.376176 L48.3616762,134.623824 Z M51.6568857,134.623824 L48.9409393,134.623824 L48.9409393,129.376176 L51.6568857,129.376176 L51.6568857,134.623824 Z M54.9520952,134.623824 L52.2361489,134.623824 L52.2361489,129.376176 L54.9520952,129.376176 L54.9520952,134.623824 Z M58.4207369,134.623824 L55.5313584,134.623824 L55.5313584,129.376176 L58.4207369,129.376176 L58.4207369,134.623824 Z" id="Shape" fill="#4B5B8C" fill-rule="nonzero" opacity="0.1"></path>
                <path d="M22,145 L22,151 L59,151 L59,145 L22,145 Z M25.2952095,150.623824 L22.5792631,150.623824 L22.5792631,145.376176 L25.2952095,145.376176 L25.2952095,150.623824 Z M28.590419,150.623824 L25.8744727,150.623824 L25.8744727,145.376176 L28.590419,145.376176 L28.590419,150.623824 Z M31.8856286,150.623824 L29.1696822,150.623824 L29.1696822,145.376176 L31.8856286,145.376176 L31.8856286,150.623824 Z M35.1808381,150.623824 L32.4648917,150.623824 L32.4648917,145.376176 L35.1808381,145.376176 L35.1808381,150.623824 Z M38.4760476,150.623824 L35.7601012,150.623824 L35.7601012,145.376176 L38.4760476,145.376176 L38.4760476,150.623824 Z M41.7712571,150.623824 L39.0553108,150.623824 L39.0553108,145.376176 L41.7712571,145.376176 L41.7712571,150.623824 Z M45.0664667,150.623824 L42.3505203,150.623824 L42.3505203,145.376176 L45.0664667,145.376176 L45.0664667,150.623824 Z M48.3616762,150.623824 L45.6457298,150.623824 L45.6457298,145.376176 L48.3616762,145.376176 L48.3616762,150.623824 Z M51.6568857,150.623824 L48.9409393,150.623824 L48.9409393,145.376176 L51.6568857,145.376176 L51.6568857,150.623824 Z M54.9520952,150.623824 L52.2361489,150.623824 L52.2361489,145.376176 L54.9520952,145.376176 L54.9520952,150.623824 Z M58.4207369,150.623824 L55.5313584,150.623824 L55.5313584,145.376176 L58.4207369,145.376176 L58.4207369,150.623824 Z" id="Shape" fill="#4B5B8C" fill-rule="nonzero" opacity="0.1"></path>
                <path d="M22,162 L22,168 L59,168 L59,162 L22,162 Z M25.2952095,167.625 L22.5792631,167.625 L22.5792631,162.375 L25.2952095,162.375 L25.2952095,167.625 Z M28.590419,167.625 L25.8744727,167.625 L25.8744727,162.375 L28.590419,162.375 L28.590419,167.625 Z M31.8856286,167.625 L29.1696822,167.625 L29.1696822,162.375 L31.8856286,162.375 L31.8856286,167.625 Z M35.1808381,167.625 L32.4648917,167.625 L32.4648917,162.375 L35.1808381,162.375 L35.1808381,167.625 Z M38.4760476,167.625 L35.7601012,167.625 L35.7601012,162.375 L38.4760476,162.375 L38.4760476,167.625 Z M41.7712571,167.625 L39.0553108,167.625 L39.0553108,162.375 L41.7712571,162.375 L41.7712571,167.625 Z M45.0664667,167.625 L42.3505203,167.625 L42.3505203,162.375 L45.0664667,162.375 L45.0664667,167.625 Z M48.3616762,167.625 L45.6457298,167.625 L45.6457298,162.375 L48.3616762,162.375 L48.3616762,167.625 Z M51.6568857,167.625 L48.9409393,167.625 L48.9409393,162.375 L51.6568857,162.375 L51.6568857,167.625 Z M54.9520952,167.625 L52.2361489,167.625 L52.2361489,162.375 L54.9520952,162.375 L54.9520952,167.625 Z M58.4207369,167.625 L55.5313584,167.625 L55.5313584,162.375 L58.4207369,162.375 L58.4207369,167.625 Z" id="Shape" fill="#4B5B8C" fill-rule="nonzero" opacity="0.1"></path>
                <path d="M22,178 C22.1322672,178.5625 22.2819379,179.125 22.4385701,179.68 L22.4385701,178.375 L25.1639699,178.375 L25.1639699,183.625 L23.709031,183.625 C23.7507996,183.74875 23.7960489,183.87625 23.8447789,184 L59,184 L59,178 L22,178 Z M28.4706491,183.625 L25.7452493,183.625 L25.7452493,178.375 L28.4706491,178.375 L28.4706491,183.625 Z M31.7773283,183.625 L29.0519285,183.625 L29.0519285,178.375 L31.7773283,178.375 L31.7773283,183.625 Z M35.0840075,183.625 L32.3586077,183.625 L32.3586077,178.375 L35.0840075,178.375 L35.0840075,183.625 Z M38.3906867,183.625 L35.6652869,183.625 L35.6652869,178.375 L38.3906867,178.375 L38.3906867,183.625 Z M41.6973659,183.625 L38.9719661,183.625 L38.9719661,178.375 L41.6973659,178.375 L41.6973659,183.625 Z M45.0040452,183.625 L42.2786453,183.625 L42.2786453,178.375 L45.0040452,178.375 L45.0040452,183.625 Z M48.3107244,183.625 L45.5853246,183.625 L45.5853246,178.375 L48.3107244,178.375 L48.3107244,183.625 Z M51.6174036,183.625 L48.8920038,183.625 L48.8920038,178.375 L51.6174036,178.375 L51.6174036,183.625 Z M54.9240828,183.625 L52.198683,183.625 L52.198683,178.375 L54.9240828,178.375 L54.9240828,183.625 Z M58.4047977,183.625 L55.5053622,183.625 L55.5053622,178.375 L58.4047977,178.375 L58.4047977,183.625 Z" id="Shape" fill="#4B5B8C" fill-rule="nonzero" opacity="0.1"></path>
                <path d="M29,192 C29.0798669,192.123673 29.1597338,192.251093 29.2429285,192.374766 L30.9700499,192.374766 L30.9700499,194.889444 C31.1530782,195.140537 31.3394343,195.387883 31.5257903,195.638976 L31.5257903,192.378513 L34.1314476,192.378513 L34.1314476,197.625234 L33.0765391,197.625234 C33.1797005,197.748907 33.2828619,197.876327 33.4093178,198 L57,198 L57,192.003748 L29,192 Z M37.2928453,197.621487 L34.687188,197.621487 L34.687188,192.374766 L37.2928453,192.374766 L37.2928453,197.621487 Z M40.4542429,197.621487 L37.8485857,197.621487 L37.8485857,192.374766 L40.4542429,192.374766 L40.4542429,197.621487 Z M43.6156406,197.621487 L41.0099834,197.621487 L41.0099834,192.374766 L43.6156406,192.374766 L43.6156406,197.621487 Z M46.7770383,197.621487 L44.171381,197.621487 L44.171381,192.374766 L46.7770383,192.374766 L46.7770383,197.621487 Z M49.9384359,197.621487 L47.3327787,197.621487 L47.3327787,192.374766 L49.9384359,192.374766 L49.9384359,197.621487 Z M53.0998336,197.621487 L50.4941764,197.621487 L50.4941764,192.374766 L53.0998336,192.374766 L53.0998336,197.621487 Z M56.4276206,197.621487 L53.655574,197.621487 L53.655574,192.374766 L56.4276206,192.374766 L56.4276206,197.621487 Z" id="Shape" fill="#4B5B8C" fill-rule="nonzero" opacity="0.1"></path>
                <path d="M47,209 C47.2836432,209.150888 47.5704381,209.295858 47.8603845,209.440828 L47.8603845,209.295858 L50.3280807,209.295858 L50.3280807,210.60355 L50.8543965,210.828402 L50.8543965,209.295858 L53.3220927,209.295858 L53.3220927,211.807692 L53.8484084,211.997041 L53.8484084,209.295858 L56.4736842,209.295858 L56.4736842,212.846154 L57,213 L57,209 L47,209 Z" id="Path" fill="#4B5B8C" fill-rule="nonzero" opacity="0.1"></path>
                <path d="M158.847648,68.010924 C158.847648,68.010924 151.162644,67.4999639 152.075299,73.4671198 C151.978827,74.0873946 152.253446,74.7060324 152.755759,75 C152.755759,75 152.771883,74.5569297 153.545866,74.7070019 C153.821527,74.7602324 154.102036,74.7758323 154.381122,74.7534528 C154.757895,74.7251979 155.115895,74.5607613 155.4002,74.2853706 L155.4002,74.2853706 C155.4002,74.2853706 157.560902,73.2956088 158.402608,69.3830125 C158.402608,69.3830125 159.025019,68.5290303 158.99922,68.3110684 L157.709248,68.9256497 C157.709248,68.9256497 158.151063,69.9618624 157.802771,70.8229909 C157.802771,70.8229909 157.760847,68.9613812 157.512528,69.0078321 C157.460929,69.0078321 156.838518,69.3651468 156.838518,69.3651468 C156.838518,69.3651468 157.599601,71.1731593 157.025564,72.4845043 C157.025564,72.4845043 157.244859,70.2584336 156.599873,69.4973532 L155.687218,70.0869225 C155.687218,70.0869225 156.577298,71.9521054 155.974237,73.4742661 C155.974237,73.4742661 156.129033,71.141001 155.493723,70.2298484 L154.668141,70.9444779 C154.668141,70.9444779 155.503397,72.7846487 154.990634,74.0459697 C154.990634,74.0459697 154.92291,71.3303778 154.48432,71.1231352 C154.171087,71.4174247 153.890684,71.7520956 153.649064,72.1200433 C153.649064,72.1200433 154.223101,73.4564004 153.868359,74.1603104 C153.868359,74.1603104 153.649064,72.3487247 153.471693,72.3415785 C153.471693,72.3415785 152.749309,73.5421559 152.675135,74.3639798 C152.71014,73.6014038 152.924724,72.8622692 153.297547,72.2200914 C152.881068,72.3069226 152.496583,72.5267538 152.191396,72.8525385 C152.191396,72.8525385 152.304269,72.0057026 153.481367,71.9306665 C153.481367,71.9306665 154.077979,71.019514 154.236001,70.9659168 C154.236001,70.9659168 153.071802,70.8587223 152.365542,71.2053176 C152.365542,71.2053176 152.987953,70.4049326 154.448846,70.7658205 L155.267978,70.0297522 C155.267978,70.0297522 153.713562,69.7974976 153.068577,70.0476179 C153.068577,70.0476179 153.81676,69.3329885 155.471148,69.854668 L156.361228,69.2650987 C155.676408,69.0990476 154.975086,69.0317913 154.2747,69.0650024 C154.2747,69.0650024 155.097056,68.5754813 156.619223,69.1078802 L157.264208,68.7898701 C157.264208,68.7898701 156.29673,68.5826275 156.025836,68.5504692 C155.754942,68.5183109 155.729142,68.4289822 155.729142,68.4289822 C156.335931,68.3171535 156.958819,68.3938365 157.528652,68.6505173 C157.528652,68.6505173 158.873447,68.0931064 158.847648,68.010924 Z" id="Path" fill="#4B5B8C" fill-rule="nonzero" opacity="0.1"></path>
                <path d="M137.72745,94.0681082 C137.72745,94.0681082 134.722151,102.115631 140.928425,102.850483 C141.513038,103.128519 142.215366,103.011497 142.671056,102.560127 C142.671056,102.560127 142.235398,102.416741 142.637828,101.635289 C142.777075,101.355316 142.882387,101.060599 142.951649,100.757051 C143.046442,100.34797 143.00107,99.9200249 142.822428,99.5382729 L142.822428,99.5382729 C142.822428,99.5382729 142.545527,96.9537455 138.93843,94.942761 C138.93843,94.942761 138.29602,94.0358464 138.070807,94 L138.2591,95.5557349 C138.2591,95.5557349 139.429468,95.3800874 140.167871,95.996646 C140.167871,95.996646 138.321864,95.5127192 138.273868,95.7887367 C138.273868,95.846091 138.410472,96.6096199 138.410472,96.6096199 C138.410472,96.6096199 140.448464,96.3120945 141.563452,97.3014559 C141.563452,97.3014559 139.429468,96.4339724 138.46216,96.9035606 L138.750137,98.0434769 C138.750137,98.0434769 140.891505,97.6240737 142.20217,98.7030512 C142.20217,98.7030512 139.938966,97.8714141 138.831362,98.2908173 L139.270711,99.3662101 C139.270711,99.3662101 141.364083,99.0077458 142.449535,99.9039065 C142.449535,99.9039065 139.735905,99.1869779 139.388856,99.6099658 C139.577945,100.027357 139.818449,100.420954 140.105106,100.782144 C140.105106,100.782144 141.61514,100.552727 142.198478,101.140608 C142.198478,101.140608 140.334011,100.857421 140.267555,101.047407 C140.267555,101.047407 141.220094,102.158647 142.010185,102.481265 C141.268559,102.227488 140.608049,101.790068 140.09403,101.212301 C140.047134,101.679763 140.140747,102.150404 140.363547,102.567296 C140.363547,102.567296 139.558688,102.208832 139.868817,100.939868 C139.868817,100.939868 139.159951,100.043708 139.156259,99.8644754 C139.156259,99.8644754 138.672605,101.0725 138.787058,101.92206 C138.787058,101.92206 138.192643,101.033069 139.03073,99.577704 L138.561845,98.5023112 C138.561845,98.5023112 137.823442,100.0688 137.878822,100.832329 C137.878822,100.832329 137.421013,99.8357982 138.469544,98.2191244 L138.174183,97.1043005 C137.78708,97.7810766 137.492911,98.5041508 137.299176,99.2550861 C137.299176,99.2550861 137.081347,98.2406323 138.104035,96.7673441 L137.996967,95.996646 C137.996967,95.996646 137.476393,96.9573302 137.354556,97.2476862 C137.23272,97.5380423 137.14042,97.530873 137.14042,97.530873 C137.225761,96.8524123 137.504512,96.2105623 137.945278,95.6776128 C137.945278,95.6776128 137.830826,94.0716929 137.72745,94.0681082 Z" id="Path" fill="#4B5B8C" fill-rule="nonzero" opacity="0.1"></path>
                <path d="M191.728814,88.0716774 C191.728814,88.0716774 188.719813,96.1138859 194.929802,96.8485796 C195.512762,97.1294898 196.215953,97.0121013 196.668746,96.558286 C196.668746,96.558286 196.236779,96.418515 196.635518,95.633647 C196.775227,95.3548106 196.881752,95.0614303 196.953032,94.7591823 C197.046412,94.3486023 196.999764,93.9196828 196.820119,93.537082 L196.820119,93.537082 C196.820119,93.537082 196.543217,90.9531104 192.939799,88.9425583 C192.939799,88.9425583 192.297387,88.0394226 192.072173,88 L192.256774,89.5589843 C192.256774,89.5589843 193.434531,89.3905423 194.172936,89.9998005 C194.172936,89.9998005 192.326923,89.5123939 192.278926,89.7919359 C192.278926,89.8492779 192.415531,90.6126426 192.415531,90.6126426 C192.415531,90.6126426 194.45353,90.3151812 195.56483,91.300746 C195.56483,91.300746 193.430839,90.433449 192.46722,90.9029362 L192.755198,92.0426074 C192.755198,92.0426074 194.892881,91.6268783 196.203551,92.7020399 C196.203551,92.7020399 193.940338,91.8741655 192.836422,92.2898946 L193.275774,93.3650562 C193.275774,93.3650562 195.369153,93.006669 196.454609,93.8990531 C196.454609,93.8990531 193.737277,93.1822787 193.393919,93.6051756 C193.582808,94.0236924 193.823317,94.4184139 194.110172,94.7806855 C194.110172,94.7806855 195.620211,94.5477339 196.199859,95.1390727 C196.199859,95.1390727 194.335385,94.8559469 194.268929,95.0423082 C194.268929,95.0423082 195.225164,96.1533085 196.015257,96.4758569 C195.2733,96.2209753 194.612783,95.782412 194.099096,95.2035824 C194.050173,95.6721868 194.143878,96.1444311 194.368614,96.5618699 C194.368614,96.5618699 193.563752,96.2034827 193.87019,94.9312082 C193.87019,94.9312082 193.161321,94.0388241 193.161321,93.8560466 C193.161321,93.8560466 192.673973,95.0638114 192.792118,95.9167729 C192.792118,95.9167729 192.201394,95.0279727 193.035792,93.5729207 L192.570597,92.4977592 C192.570597,92.4977592 191.832191,94.0639112 191.88388,94.8308597 C191.88388,94.8308597 191.426068,93.8309595 192.474604,92.2146333 L192.182934,91.1000492 C191.796553,91.7770116 191.502421,92.4998363 191.307923,93.2503723 C191.307923,93.2503723 191.086402,92.2361365 192.109093,90.7631652 L192.002024,89.9962166 C192.002024,89.9962166 191.485141,90.9566943 191.359612,91.2469879 C191.234083,91.5372815 191.149166,91.5265299 191.149166,91.5265299 C191.234197,90.848779 191.511572,90.2072959 191.950336,89.6736682 C191.950336,89.6736682 191.828499,88.0716774 191.728814,88.0716774 Z" id="Path" fill="#4B5B8C" fill-rule="nonzero" opacity="0.1"></path>
                <path d="M113.727448,150.07168 C113.727448,150.07168 110.722155,158.11781 116.928419,158.84895 C117.512682,159.129276 118.216488,159.012028 118.671046,158.558644 C118.671046,158.558644 118.235389,158.418868 118.637818,157.637551 C118.778145,157.358061 118.883501,157.063268 118.951639,156.759465 C119.046443,156.34927 119.001083,155.920262 118.822418,155.537314 L118.822418,155.537314 C118.822418,155.537314 118.545518,152.953234 114.942119,150.942598 C114.942119,150.942598 114.296018,150.039424 114.070805,150 L114.259097,151.55905 C114.259097,151.55905 115.429464,151.383432 116.171557,151.999884 C116.171557,151.999884 114.325554,151.512457 114.273865,151.792011 C114.273865,151.849355 114.41047,152.612752 114.41047,152.612752 C114.41047,152.612752 116.448458,152.315278 117.563444,153.300884 C117.563444,153.300884 115.429464,152.433551 114.462158,152.903058 L114.753826,154.042777 C114.753826,154.042777 116.891499,153.62703 118.202161,154.702237 C118.202161,154.702237 115.938961,153.874328 114.831359,154.290074 L115.270707,155.365281 C115.270707,155.365281 117.364075,155.006879 118.449526,155.8993 C118.449526,155.8993 115.7359,155.182496 115.388852,155.60541 C115.57787,156.024637 115.819695,156.419501 116.108793,156.78097 C116.108793,156.78097 117.615132,156.548008 118.198469,157.139372 C118.198469,157.139372 116.334005,156.856234 116.267549,157.042603 C116.267549,157.042603 117.220087,158.15365 118.010177,158.476212 C117.269558,158.220768 116.610377,157.782226 116.097717,157.203884 C116.048745,157.67211 116.141104,158.144055 116.363542,158.562228 C116.363542,158.562228 115.562376,158.203826 115.868813,156.931498 C115.868813,156.931498 115.159947,156.039077 115.156255,155.856292 C115.156255,155.856292 114.672602,157.067691 114.787054,157.917105 C114.787054,157.917105 114.196333,157.028267 115.030727,155.573154 L114.565534,154.497948 C114.565534,154.497948 113.827133,156.064165 113.878821,156.831146 C113.878821,156.831146 113.421012,155.831204 114.469542,154.218394 L114.174181,153.100179 C113.787803,153.77717 113.493672,154.500025 113.299176,155.250592 C113.299176,155.250592 113.081347,154.236314 114.104033,152.763281 L113.996965,151.9963 C113.996965,151.9963 113.476392,152.956818 113.354556,153.247124 C113.232719,153.53743 113.140419,153.526678 113.140419,153.526678 C113.227838,152.848873 113.506359,152.207664 113.945277,151.673738 C113.945277,151.673738 113.830825,150.07168 113.727448,150.07168 Z" id="Path" fill="#4B5B8C" fill-rule="nonzero" opacity="0.1"></path>
                <path d="M103.729503,79.0681082 C103.729503,79.0681082 100.719478,87.115631 106.927884,87.8504827 C107.512698,88.1285188 108.215267,88.0114973 108.671113,87.5601267 C108.671113,87.5601267 108.238999,87.416741 108.637874,86.6352889 C108.778815,86.3559789 108.884232,86.0610677 108.951803,85.7570514 C109.046368,85.3467692 109.001002,84.9177712 108.822538,84.5346883 L108.822538,84.5346883 C108.822538,84.5346883 108.545542,81.9501609 104.940899,79.942761 C104.940899,79.942761 104.298268,79.0358464 104.069285,79 L104.257642,80.5557349 C104.257642,80.5557349 105.428412,80.3800874 106.170762,80.996646 C106.170762,80.996646 104.324121,80.5127192 104.276108,80.7887367 C104.276108,80.846091 104.41276,81.6096199 104.41276,81.6096199 C104.41276,81.6096199 106.447758,81.3120945 107.563129,82.2978712 C107.563129,82.2978712 105.428412,81.4339724 104.464466,81.8999759 L104.752542,83.0434769 C104.752542,83.0434769 106.890951,82.6240737 108.202066,83.7030512 C108.202066,83.7030512 105.938085,82.8714141 104.833794,83.2872326 L105.273294,84.3626254 C105.273294,84.3626254 107.367385,84.0041612 108.449516,84.8967372 C108.449516,84.8967372 105.734954,84.1798086 105.387786,84.6063811 C105.577072,85.0244652 105.818977,85.4181877 106.107976,85.7785593 C106.107976,85.7785593 107.614835,85.5491421 108.198373,86.1370235 C108.198373,86.1370235 106.333266,85.8538368 106.266787,86.0438228 C106.266787,86.0438228 107.223347,87.155062 108.010016,87.4776799 C107.269002,87.2242491 106.609374,86.7867215 106.096896,86.2087164 C106.048035,86.6762648 106.141788,87.1474427 106.366506,87.5637113 C106.366506,87.5637113 105.56137,87.205247 105.867913,85.9362835 C105.867913,85.9362835 105.158803,85.0401229 105.155109,84.8608907 C105.155109,84.8608907 104.671289,86.0725 104.785781,86.9220603 C104.785781,86.9220603 104.194856,86.0330689 105.029538,84.577704 L104.564184,83.5023112 C104.564184,83.5023112 103.825528,85.0688 103.877234,85.8323289 C103.877234,85.8323289 103.419267,84.8357982 104.468159,83.2191244 L104.172696,82.1043005 C103.787121,82.7818373 103.492938,83.5046968 103.297389,84.2550861 C103.297389,84.2550861 103.079485,83.2370476 104.102524,81.7673441 L103.995419,80.996646 C103.995419,80.996646 103.478359,81.9573302 103.352788,82.2476862 C103.227216,82.5380423 103.138578,82.5272884 103.138578,82.5272884 C103.226027,81.8493665 103.504644,81.2080458 103.943713,80.6740281 C103.943713,80.6740281 103.829221,79.0716929 103.729503,79.0681082 Z" id="Path" fill="#4B5B8C" fill-rule="nonzero" opacity="0.1"></path>
                <path d="M123,120.259354 C123,120.259354 125.302155,128.170376 130.759252,125.418717 C131.396712,125.323885 131.897207,124.854923 132,124.25614 C132,124.25614 131.564457,124.379965 131.429036,123.551027 C131.37634,123.256285 131.289192,122.967908 131.169174,122.691134 C131.002041,122.319511 130.712003,122.008349 130.342009,121.803723 L130.342009,121.803723 C130.342009,121.803723 128.596177,119.929155 124.48597,120.286871 C124.48597,120.286871 123.431883,119.922276 123.230582,120.015145 L124.295649,121.136446 C124.295649,121.136446 125.141114,120.369421 126.103701,120.448531 C126.103701,120.448531 124.313949,121.064215 124.44937,121.301546 C124.47499,121.353139 125.042294,121.872515 125.042294,121.872515 C125.042294,121.872515 126.506303,120.544839 127.999593,120.720257 C127.999593,120.720257 125.759658,121.18804 125.254575,122.07201 L126.162261,122.814958 C126.162261,122.814958 127.644571,121.335941 129.342822,121.476964 C129.342822,121.476964 127.022367,122.041054 126.370882,122.96286 L127.366409,123.578544 C127.366409,123.578544 128.830419,122.164879 130.254168,122.288703 C130.254168,122.288703 127.640911,123.196751 127.604311,123.702369 C128.002427,123.929871 128.429024,124.110104 128.874339,124.238942 C128.874339,124.238942 129.972346,123.248345 130.773892,123.389367 C130.773892,123.389367 129.097601,124.166711 129.152501,124.352448 C129.152501,124.352448 130.579911,124.696406 131.403416,124.531306 C130.653405,124.730922 129.860711,124.741598 129.104921,124.562262 C129.342005,124.955597 129.695462,125.275817 130.122407,125.484068 C130.122407,125.484068 129.258642,125.63197 128.760878,124.472833 C128.760878,124.472833 127.662871,124.152953 127.54941,124.008491 C127.54941,124.008491 127.867832,125.215782 128.460756,125.821147 C128.460756,125.821147 127.45791,125.442794 127.278569,123.85371 L126.264742,123.255224 C126.264742,123.255224 126.597804,124.875264 127.084587,125.453112 C127.084587,125.453112 126.125661,124.916539 126.02318,123.086685 L125.126474,122.371253 C125.213706,123.113807 125.404441,123.842361 125.693778,124.538185 C125.693778,124.538185 124.917853,123.85027 124.877593,122.15456 L124.339569,121.611107 C124.339569,121.611107 124.48597,122.64298 124.55551,122.935344 C124.625051,123.227707 124.55551,123.279301 124.55551,123.279301 C124.225261,122.701676 124.073152,122.048881 124.116307,121.394414 C124.116307,121.394414 123.080521,120.204321 123,120.259354 Z" id="Path" fill="#4B5B8C" fill-rule="nonzero" opacity="0.1"></path>
                <path d="M182,128.259354 C182,128.259354 184.302155,136.170376 189.762912,133.418717 C190.399498,133.323542 190.898726,132.854384 191,132.25614 C191,132.25614 190.568117,132.379965 190.429036,131.551027 C190.379773,131.255568 190.292514,130.966823 190.169174,130.691134 C190.003667,130.319624 189.714805,130.008346 189.345669,129.803723 L189.345669,129.803723 C189.345669,129.803723 187.599837,127.929155 183.48963,128.286871 C183.48963,128.286871 182.435543,127.922276 182.230582,128.015145 L183.299309,129.136446 C183.299309,129.136446 184.144774,128.369421 185.107361,128.448531 C185.107361,128.448531 183.317609,129.064215 183.44937,129.304985 C183.47499,129.353139 184.042294,129.872515 184.042294,129.872515 C184.042294,129.872515 185.506303,128.544839 186.999593,128.720257 C186.999593,128.720257 184.763318,129.18804 184.258235,130.07201 L185.162261,130.814958 C185.162261,130.814958 186.648231,129.335941 188.342822,129.476964 C188.342822,129.476964 186.022367,130.041054 185.370882,130.96286 L186.366409,131.578544 C186.366409,131.578544 187.830419,130.164879 189.257828,130.288703 C189.257828,130.288703 186.644571,131.196751 186.604311,131.705808 C187.004086,131.931784 187.431841,132.110831 187.877999,132.238942 C187.877999,132.238942 188.976007,131.248345 189.773892,131.389367 C189.773892,131.389367 188.097601,132.170151 188.156161,132.352448 C188.156161,132.352448 189.583571,132.696406 190.407076,132.531306 C189.657065,132.730922 188.864371,132.741598 188.108581,132.562262 C188.344476,132.956462 188.698247,133.276965 189.126068,133.484068 C189.126068,133.484068 188.262302,133.63197 187.760878,132.472833 C187.760878,132.472833 186.662871,132.152953 186.54941,132.008491 C186.54941,132.008491 186.871492,133.215782 187.464416,133.824586 C187.464416,133.824586 186.46157,133.442794 186.282229,131.85371 L185.268402,131.255224 C185.268402,131.255224 185.597804,132.875264 186.084587,133.453112 C186.084587,133.453112 185.125661,132.916539 185.02318,131.086685 L184.130134,130.371253 C184.217346,131.113459 184.406813,131.841868 184.693778,132.538185 C184.693778,132.538185 183.917853,131.85027 183.881253,130.15456 L183.343229,129.611107 C183.343229,129.611107 183.48963,130.64298 183.55917,130.935344 C183.628711,131.227707 183.55917,131.279301 183.55917,131.279301 C183.228921,130.701676 183.076812,130.048881 183.119967,129.394414 C183.119967,129.394414 182.084181,128.187123 182,128.259354 Z" id="Path" fill="#4B5B8C" fill-rule="nonzero" opacity="0.1"></path>
                <polygon id="Path" fill="#4B5B8C" fill-rule="nonzero" points="325 243.603834 328.480415 247 334 238.009585 333.502304 237"></polygon>
                <polygon id="Path" fill="#000000" fill-rule="nonzero" opacity="0.2" points="325 243.603834 328.480415 247 334 238.009585 333.502304 237"></polygon>
                <path d="M84,235.104859 C84,253.167589 71.6698851,257 59.3127969,257 C46.9557088,257 40,241.778598 40,223.709102 C40,205.639606 50.0171648,191 62.3742529,191 C74.731341,191 84,217.042128 84,235.104859 Z" id="Path" fill="#636780" fill-rule="nonzero"></path>
                <path d="M84,235.104859 C84,253.167589 71.6698851,257 59.3127969,257 C46.9557088,257 40,241.778598 40,223.709102 C40,205.639606 50.0171648,191 62.3742529,191 C74.731341,191 84,217.042128 84,235.104859 Z" id="Path" fill="#000000" fill-rule="nonzero" opacity="0.2"></path>
                <path d="M77,223.998294 C77,242.222607 68.8535211,257 58.8036593,257 C48.7537976,257 40.2093386,242.222607 40.2093386,223.998294 C40.2093386,221.479653 39.8148192,219.029267 40.1089784,216.67444 C41.9466081,201.975542 50.1449974,191 58.7967379,191 C68.8535211,191 77,205.77398 77,223.998294 Z" id="Path" fill="#636780" fill-rule="nonzero"></path>
                <path d="M73.5679156,143.753777 C73.5679156,143.753777 57.9582461,161.359118 53,176.031372 L187.793848,191 L260,176.031372 C260,176.031372 231.402029,141.563329 223.673397,140.231346 C215.944764,138.899363 73.5679156,143.753777 73.5679156,143.753777 Z" id="Path" fill="#4B5B8C" fill-rule="nonzero"></path>
                <path d="M73.5679156,143.753777 C73.5679156,143.753777 57.9582461,161.359118 53,176.031372 L187.793848,191 L260,176.031372 C260,176.031372 231.402029,141.563329 223.673397,140.231346 C215.944764,138.899363 73.5679156,143.753777 73.5679156,143.753777 Z" id="Path" fill="#000000" fill-rule="nonzero" opacity="0.4"></path>
                <polygon id="Path" fill="#4B5B8C" fill-rule="nonzero" points="173 189.932649 194.716911 250 194.716911 234.797148 200.761474 217.77773 217.508109 210.467894 238.74227 219.966324 246.33707 222.30574 247 208.450231 221.754261 196.180029 210.0017 190.619727 183.100335 188.307123 175.678918 187"></polygon>
                <path d="M182.274508,194.594229 L202.038579,197 C201.14083,188.628494 207,188.628494 207,188.628494 L187.229128,185 L178,185" id="Path" fill="#4B5B8C" fill-rule="nonzero"></path>
                <path d="M195.539315,259.195169 L209.507245,259.195169 L249.956606,257.843096 C249.956606,257.843096 250.831296,265.53301 261.483538,263.724613 C261.483538,263.724613 267.348712,264.099813 267.979303,260.922442 C268.609894,257.745071 254.621623,228.38143 254.621623,228.38143 L235.551331,214.184665 L218.260933,210 L205.849139,213.640456 L197.963361,226.147129 L193,243.267751 L195.539315,259.195169 Z" id="Path" fill="#636780" fill-rule="nonzero"></path>
                <path d="M195.539315,259.195169 L209.507245,259.195169 L249.956606,257.843096 C249.956606,257.843096 250.831296,265.53301 261.483538,263.724613 C261.483538,263.724613 267.348712,264.099813 267.979303,260.922442 C268.609894,257.745071 254.621623,228.38143 254.621623,228.38143 L235.551331,214.184665 L218.260933,210 L205.849139,213.640456 L197.963361,226.147129 L193,243.267751 L195.539315,259.195169 Z" id="Path" fill="#000000" fill-rule="nonzero" opacity="0.2"></path>
                <path d="M77.0532495,148.016571 C75.0202736,149.638322 68.597448,155.455763 63.2462419,167.756843 C62.8699956,168.614183 62.9274138,169.594216 63.4013373,170.404063 C63.8752607,171.21391 64.710796,171.759769 65.6582472,171.878512 L97.9033127,175.959806 C100.365326,176.272781 102.674592,174.727959 103.264856,172.373113 L108.933068,149.793094 C109.104569,149.112732 108.942338,148.393182 108.494084,147.846051 C108.04583,147.298921 107.362522,146.986421 106.645109,147.000453 L78.4694412,147.511877 C77.9524926,147.518787 77.4532304,147.696711 77.0532495,148.016571 L77.0532495,148.016571 Z" id="Path" fill="#4B5B8C" fill-rule="nonzero"></path>
                <path d="M77.0532495,148.016571 C75.0202736,149.638322 68.597448,155.455763 63.2462419,167.756843 C62.8699956,168.614183 62.9274138,169.594216 63.4013373,170.404063 C63.8752607,171.21391 64.710796,171.759769 65.6582472,171.878512 L97.9033127,175.959806 C100.365326,176.272781 102.674592,174.727959 103.264856,172.373113 L108.933068,149.793094 C109.104569,149.112732 108.942338,148.393182 108.494084,147.846051 C108.04583,147.298921 107.362522,146.986421 106.645109,147.000453 L78.4694412,147.511877 C77.9524926,147.518787 77.4532304,147.696711 77.0532495,148.016571 L77.0532495,148.016571 Z" id="Path" fill="#FFFFFF" fill-rule="nonzero" opacity="0.2"></path>
                <path d="M123.175085,147.334431 L158.879534,147 C161.451149,146.976846 163.755099,148.671196 164.622469,151.257837 L175.755968,176.198535 C176.741924,179.119367 174.61077,182.160508 171.690174,181.993413 L119.573469,178.608055 C115.250174,178.360753 112.190664,174.012924 113.190172,169.531418 L116.967972,152.597944 C117.648993,149.536751 120.210443,147.361166 123.175085,147.334431 Z" id="Path" fill="#4B5B8C" fill-rule="nonzero"></path>
                <path d="M123.175085,147.334431 L158.879534,147 C161.451149,146.976846 163.755099,148.671196 164.622469,151.257837 L175.755968,176.198535 C176.741924,179.119367 174.61077,182.160508 171.690174,181.993413 L119.573469,178.608055 C115.250174,178.360753 112.190664,174.012924 113.190172,169.531418 L116.967972,152.597944 C117.648993,149.536751 120.210443,147.361166 123.175085,147.334431 Z" id="Path" fill="#FFFFFF" fill-rule="nonzero" opacity="0.2"></path>
                <path d="M179.399994,146.808369 C189.085516,146.635412 214.753326,145.910325 227.521674,143 C227.521674,143 249.434285,159.331083 256,171.650906 C256,171.650906 221.843491,179.876317 198.253311,180.990555 C194.677447,181.153741 191.348003,179.190682 189.791507,176.001426 L177.248403,150.284129 C176.88142,149.542146 176.923264,148.666053 177.359331,147.961613 C177.795398,147.257174 178.565172,146.82215 179.399994,146.808369 Z" id="Path" fill="#4B5B8C" fill-rule="nonzero"></path>
                <path d="M179.399994,146.808369 C189.085516,146.635412 214.753326,145.910325 227.521674,143 C227.521674,143 249.434285,159.331083 256,171.650906 C256,171.650906 221.843491,179.876317 198.253311,180.990555 C194.677447,181.153741 191.348003,179.190682 189.791507,176.001426 L177.248403,150.284129 C176.88142,149.542146 176.923264,148.666053 177.359331,147.961613 C177.795398,147.257174 178.565172,146.82215 179.399994,146.808369 Z" id="Path" fill="#FFFFFF" fill-rule="nonzero" opacity="0.2"></path>
                <path d="M191.707643,150.974966 C195.73779,150.903314 203.599934,150.69177 211.277363,150.108319 C222.738375,149.220588 233.949021,153.826572 241.580707,162.558692 L241.829233,162.8453 C242.938451,164.143654 243.289723,165.940871 242.752941,167.571282 C242.216159,169.201692 240.871251,170.422527 239.216355,170.781602 C230.74633,172.627492 216.318405,175.4458 205.181766,175.99172 C202.61897,176.123085 200.228038,174.682055 199.113037,172.33406 L190.172829,153.510079 C189.915207,152.967594 189.947256,152.329166 190.257864,151.816122 C190.568472,151.303078 191.114873,150.986059 191.707643,150.974966 Z" id="Path" fill="#FFFFFF" fill-rule="nonzero" opacity="0.1"></path>
                <path d="M194,249.689938 L194,259 L90.6017169,243.288426 C85.5346377,241.541945 82.5106808,242.612805 82.5106808,242.612805 C78.7774007,240.798761 76.0622879,233.721628 75.9842284,233.491917 L75.9842284,233.491917 L77.9357157,227.867369 L62.0862448,201.774873 L41,202.646425 C44.3158315,176.260034 53.8628469,175 53.8628469,175 L177.739868,186.445025 L194,249.689938 Z" id="Path" fill="#4B5B8C" fill-rule="nonzero"></path>
                <path d="M172.439524,194.384852 C171.683917,195.26753 170.302327,196.069352 167.754132,195.995234 C163.849638,195.894164 163.109839,192.343237 163.011832,190.224135 C162.987247,189.704962 163.000989,189.184534 163.052932,188.667656 L168.168292,187 L169.21476,188.041022 L172.303578,191.123658 C173.176348,191.989094 173.236845,193.44036 172.439524,194.384852 Z" id="Path" fill="#000000" fill-rule="nonzero" opacity="0.1"></path>
                <path d="M172.439524,194.384852 C171.683917,195.26753 170.302327,196.069352 167.754132,195.995234 C163.849638,195.894164 163.109839,192.343237 163.011832,190.224135 C162.987247,189.704962 163.000989,189.184534 163.052932,188.667656 L168.168292,187 L169.21476,188.041022 L172.303578,191.123658 C173.176348,191.989094 173.236845,193.44036 172.439524,194.384852 Z" id="Path" fill="#DCE0ED" fill-rule="nonzero"></path>
                <path d="M169,187.946885 C168.262874,189.561798 166.083545,190 166.083545,190 L162.013327,189.932584 C161.985635,189.460359 162.001114,188.986992 162.05962,188.516854 L167.82131,187 L169,187.946885 Z" id="Path" fill="#000000" fill-rule="nonzero" opacity="0.1"></path>
                <path d="M154.80996,174.043597 C154.80996,174.043597 146.063144,175.261506 148.395402,183.484151 C150.162368,189.714495 154.105882,190.133371 155.913467,189.974972 C156.965687,189.877044 158.022154,189.837095 159.078434,189.855293 L165.993971,189.999612 C165.993971,189.999612 169.90025,189.052741 168.806898,184.959018 C167.713546,180.865295 162.683449,173.360723 154.80996,174.043597 Z" id="Path" fill="#F0F0F4" fill-rule="nonzero"></path>
                <ellipse id="Oval" fill="#000000" fill-rule="nonzero" opacity="0.2" cx="107.5" cy="192" rx="4.5" ry="5"></ellipse>
                <path d="M102.766808,190.564126 L114.364073,190.5629 C115.349356,190.562796 116.14817,191.361441 116.148274,192.346724 C116.148274,192.34685 116.148274,192.346975 116.148274,192.347101 C116.14817,193.332654 115.349248,194.131576 114.363695,194.13168 L102.76643,194.132906 C101.781148,194.13301 100.982333,193.334365 100.982229,192.349082 C100.982229,192.348956 100.982229,192.348831 100.982229,192.348705 C100.982334,191.363152 101.781256,190.56423 102.766808,190.564126 Z" id="Rectangle" fill="#000000" fill-rule="nonzero" opacity="0.1" transform="translate(108.565252, 192.347903) rotate(6.090000) translate(-108.565252, -192.347903) "></path>
                <path d="M102.767229,190.27036 L114.364494,190.269134 C115.349776,190.269029 116.148591,191.067675 116.148695,192.052958 C116.148695,192.053083 116.148695,192.053209 116.148695,192.053335 C116.14859,193.038887 115.349668,193.83781 114.364116,193.837914 L102.766851,193.83914 C101.781568,193.839244 100.982754,193.040599 100.98265,192.055316 C100.98265,192.05519 100.98265,192.055064 100.98265,192.054939 C100.982754,191.069386 101.781676,190.270464 102.767229,190.27036 Z" id="Rectangle" fill="#F0F0F4" fill-rule="nonzero" transform="translate(108.565672, 192.054137) rotate(6.090000) translate(-108.565672, -192.054137) "></path>
                <path d="M40.7964169,227.44285 C40.7964169,227.44285 33.572178,220.304045 42.3466393,203.121539 C42.3466393,203.121539 53.5967281,186.077683 71.0544611,204.724473 C71.0544611,204.724473 81.0920665,215.938248 84,233.854586 L77.164161,234 C77.164161,234 70.6154003,202.245674 51.4149336,203.848608 C51.4149336,203.845226 37.4494227,206.320643 40.7964169,227.44285 Z" id="Path" fill="#000000" fill-rule="nonzero" opacity="0.1"></path>
                <path d="M40.7976033,227.445973 C40.7976033,227.445973 33.5707504,220.310268 42.3476619,203.120321 C42.3476619,203.120321 53.5965624,186.079175 71.0524514,204.723318 C71.0524514,204.723318 81.0889966,215.940917 84,233.85458 L77.161506,234 C77.161506,234 70.6066829,202.251185 51.4082443,203.850801 C51.4082443,203.850801 37.4442085,206.326315 40.7976033,227.445973 Z" id="Path" fill="#000000" fill-rule="nonzero" opacity="0.1"></path>
                <path d="M40.7976033,227.445973 C40.7976033,227.445973 33.5707504,220.306886 42.3476619,203.120321 C42.3476619,203.120321 53.5965624,186.079175 71.0524514,204.723318 C71.0524514,204.723318 81.0889966,215.937535 84,233.85458 L77.161506,234 C77.161506,234 70.6066829,202.247803 51.4082443,203.847419 C51.4082443,203.847419 37.4442085,206.326315 40.7976033,227.445973 Z" id="Path" fill="#4B5B8C" fill-rule="nonzero"></path>
                <path d="M40.7976033,227.445973 C40.7976033,227.445973 33.5707504,220.306886 42.3476619,203.120321 C42.3476619,203.120321 53.5965624,186.079175 71.0524514,204.723318 C71.0524514,204.723318 81.0889966,215.937535 84,233.85458 L77.161506,234 C77.161506,234 70.6066829,202.247803 51.4082443,203.847419 C51.4082443,203.847419 37.4442085,206.326315 40.7976033,227.445973 Z" id="Path" fill="#000000" fill-rule="nonzero" opacity="0.2"></path>
                <path d="M194,248.56413 L194,258 L90.615535,242.076113 C85.5491329,240.306031 82.5255802,241.391362 82.5255802,241.391362 C78.792799,239.552805 76.0780491,232.380037 76,232.147221 L76,232.147221 L82.8717108,232 L102.750467,234.800632 L175.000144,245.270477 C175.000144,245.270477 187.813764,246.746115 188.543353,247.32473 C189.272942,247.903345 194,248.56413 194,248.56413 Z" id="Path"></path>
                <path d="M194,248.565372 L194,258 L90.615535,242.074786 C85.5491329,240.308361 82.5255802,241.390125 82.5255802,241.390125 C78.792799,239.55181 76.0780491,232.379987 76,232.147202 L76,232.147202 L82.8717108,232 L102.750467,234.800263 L175.000144,245.268729 C175.000144,245.268729 187.813764,246.744174 188.543353,247.322712 C189.272942,247.901251 194,248.565372 194,248.565372 Z" id="Path" fill="#000000" fill-rule="nonzero" opacity="0.1"></path>
                <path d="M194,248.56413 L194,258 L90.615535,242.076113 C85.5491329,240.306031 82.5255802,241.391362 82.5255802,241.391362 C78.792799,239.552805 76.0780491,232.380037 76,232.147221 L76,232.147221 L82.8717108,232 L102.750467,234.800632 L175.000144,245.270477 C175.000144,245.270477 187.813764,246.746115 188.543353,247.32473 C189.272942,247.903345 194,248.56413 194,248.56413 Z" id="Path" fill="#4B5B8C" fill-rule="nonzero"></path>
                <path d="M194,248.56413 L194,258 L90.615535,242.076113 C85.5491329,240.306031 82.5255802,241.391362 82.5255802,241.391362 C78.792799,239.552805 76.0780491,232.380037 76,232.147221 L76,232.147221 L82.8717108,232 L102.750467,234.800632 L175.000144,245.270477 C175.000144,245.270477 187.813764,246.746115 188.543353,247.32473 C189.272942,247.903345 194,248.56413 194,248.56413 Z" id="Path" fill="#000000" fill-rule="nonzero" opacity="0.2"></path>
                <path d="M334.130098,215 C334.130098,215 299.723254,232.478377 257.294353,230.730201 C257.294353,230.730201 247.755889,231.200214 247.092462,230.327816 C246.429034,229.455419 249.553237,234 249.553237,234 C249.553237,234 250.731159,232.769176 251.898927,232.769176 C253.066695,232.769176 258.404579,233.164798 258.404579,233.164798 C258.404579,233.164798 319.399298,230.584802 335,216.748176 L334.130098,215 Z" id="Path"></path>
                <path d="M103.708358,236 C97.0568147,215.359786 97.4117043,200.964611 98.880455,192.532618 C100.475701,183.363718 103.701331,179.040751 103.732954,179 L103.975404,179.17319 C103.94378,179.213941 100.756802,183.506345 99.1756106,192.607328 C97.7138874,201.022341 97.3625117,215.342806 104,235.928686 L103.708358,236 Z" id="Path" fill="#000000" fill-rule="nonzero" opacity="0.2"></path>
                <path d="M336.03644,226.556826 C336.295156,227.51102 336.897691,230.147697 335.941124,230.859128 C335.576879,231.128865 335.260293,231.793092 335.015194,232.582072 C334.631685,233.920832 334.353975,235.287131 334.18458,236.668586 L324.210409,247.704194 L307.349635,254.241941 L267.027432,257 L242.687732,217.790378 L188,185.934457 L202.930619,185.115132 C217.864642,184.292434 260.25657,175 260.25657,175 L308.210886,185.492763 C315.96679,187.177643 322.818294,191.64693 327.444356,198.038898 C333.282479,206.131003 335.95474,214.897451 335.95474,214.897451 C336.676421,215.753865 336.955561,217.156497 336.996411,218.693997 C337.050878,221.199178 336.472172,224.051645 336.155585,225.413816 C336.03644,225.922944 335.95474,226.226398 335.95474,226.226398 C335.95474,226.226398 335.981973,226.341036 336.03644,226.556826 Z" id="Path" fill="#4B5B8C" fill-rule="nonzero"></path>
                <path d="M190.129177,247.947464 C190.129177,247.947464 187.212121,216.787443 209.101898,208.331993 C209.101898,208.331993 239.891915,195.357952 257.987148,230.613793 L267.178753,250.720852 C267.178753,250.720852 269.804442,255.672363 276.956481,255.526929 C276.956481,255.526929 310.663553,254.512275 328.453867,243.144769 L334,236.718628 C334,236.718628 331.228628,245.749048 328.453867,247.788502 C328.453867,247.788502 317.510672,260.606963 277.671346,262.940667 C277.671346,262.940667 261.378521,264.685872 256.465942,249.246221 C256.465942,249.246221 249.801774,214.28463 215.94563,214.575497 C215.94563,214.575497 196.054765,214.964448 195.566895,249.148138 L190.129177,247.947464 Z" id="Path" fill="#000000" fill-rule="nonzero" opacity="0.1"></path>
                <path d="M190.129162,247.937026 C190.129162,247.937026 187.212449,216.787359 209.099652,208.330421 C209.099652,208.330421 239.886046,195.362665 257.979151,230.607234 L267.169675,250.706411 C267.169675,250.706411 269.795056,255.656814 276.946253,255.511413 C276.946253,255.511413 310.64936,254.496986 328.437581,243.132024 L334,236.724228 C334,236.724228 331.228953,245.752627 328.454519,247.791625 C328.454519,247.791625 317.512612,260.610599 277.677971,262.940399 C277.677971,262.940399 261.387064,264.688594 256.475062,249.249018 C256.475062,249.249018 249.811677,214.295251 215.959516,214.586053 C215.959516,214.586053 196.07099,214.978298 195.583178,249.154338 L190.129162,247.937026 Z" id="Path" fill="#4B5B8C" fill-rule="nonzero"></path>
                <path d="M190.129162,247.937026 C190.129162,247.937026 187.212449,216.787359 209.099652,208.330421 C209.099652,208.330421 239.886046,195.362665 257.979151,230.607234 L267.169675,250.706411 C267.169675,250.706411 269.795056,255.656814 276.946253,255.511413 C276.946253,255.511413 310.64936,254.496986 328.437581,243.132024 L334,236.724228 C334,236.724228 331.228953,245.752627 328.454519,247.791625 C328.454519,247.791625 317.512612,260.610599 277.677971,262.940399 C277.677971,262.940399 261.387064,264.688594 256.475062,249.249018 C256.475062,249.249018 249.811677,214.295251 215.959516,214.586053 C215.959516,214.586053 196.07099,214.978298 195.583178,249.154338 L190.129162,247.937026 Z" id="Path" fill="#000000" fill-rule="nonzero" opacity="0.2"></path>
                <path d="M184.717797,247 L183.379056,203.173947 C183.559545,200.206467 183.444268,197.228526 183.034907,194.283587 C182.993609,194.098941 181.930187,189.578535 180.50885,187.010589 C179.596853,185.687293 178.822517,185.283808 178.788102,185.276969 L178,185.064968 L178.881023,185 C179.490167,185.116259 180.068338,185.745422 180.60177,186.6242 C181.572271,187.947496 182.714848,190.272667 183.317109,194.235716 C183.728608,197.19079 183.843889,200.179149 183.661259,203.15685 L185,246.972645 L184.717797,247 Z" id="Path" fill="#000000" fill-rule="nonzero" opacity="0.2"></path>
                <path d="M212,215.952437 L211.703148,216 C211.703148,215.966026 211.070571,212.354632 208.985541,209.483863 C204.614044,203.467137 203.186329,199.386907 203.023767,196.662224 C202.94432,195.717959 203.064533,194.768005 203.377162,193.869594 C204.059214,192.031622 205.886266,190.672677 208.367099,190 L208.367099,190 L208.897192,190.084934 C206.511776,190.730433 204.303057,192.225271 203.649276,193.968117 C203.337264,194.853759 203.217001,195.791399 203.295881,196.723376 C203.472579,199.390304 204.903828,203.392395 209.204646,209.320789 C211.360355,212.242519 211.996466,215.915066 212,215.952437 Z" id="Path" fill="#000000" fill-rule="nonzero" opacity="0.2"></path>
                <path d="M305.849655,201 C287.097585,189.803419 247.39978,179.389744 247,179.287179 L247.075172,179 C247.474952,179.105983 287.21376,189.529915 306,200.747009 L305.849655,201 Z" id="Path" fill="#000000" fill-rule="nonzero" opacity="0.2"></path>
                <path d="M331.742955,216 C324.64166,203.699317 305.520944,193.558424 290.728865,187.214039 C280.723174,182.952713 270.460858,179.301177 260,176.280098 L260.078827,176 C270.552777,179.024041 280.827731,182.680102 290.845392,186.947439 C305.678599,193.308698 324.857578,203.483338 332,215.854889 L331.742955,216 Z" id="Path" fill="#000000" fill-rule="nonzero" opacity="0.2"></path>
                <ellipse id="Oval" fill="#000000" fill-rule="nonzero" opacity="0.1" transform="translate(323.958163, 201.489750) rotate(-37.000000) translate(-323.958163, -201.489750) " cx="323.958163" cy="201.48975" rx="3.37056407" ry="14.3141142"></ellipse>
                <ellipse id="Oval" fill="#DCE0ED" fill-rule="nonzero" transform="translate(323.959821, 200.904473) rotate(-37.000000) translate(-323.959821, -200.904473) " cx="323.959821" cy="200.904473" rx="3.37056407" ry="14.3141142"></ellipse>
                <ellipse id="Oval" fill="#000000" fill-rule="nonzero" opacity="0.1" transform="translate(324.348185, 200.934961) rotate(-37.000000) translate(-324.348185, -200.934961) " cx="324.348185" cy="200.934961" rx="2.18815135" ry="11.8208632"></ellipse>
                <ellipse id="Oval" fill="#F0F0F4" fill-rule="nonzero" transform="translate(324.349014, 200.644020) rotate(-37.000000) translate(-324.349014, -200.644020) " cx="324.349014" cy="200.64402" rx="2.18815135" ry="11.8208632"></ellipse>
                <path d="M288.61374,223.17569 C288.61374,223.17569 289.562827,216.248839 295.186168,214.693497 C295.186168,214.693497 314.310274,209.338395 318.472699,209.259644 C318.472699,209.259644 322.777487,207.983213 325.624748,211.090616 L328.543191,214.906783 C328.543191,214.906783 330.576949,218.017467 326.062006,218.581853 C326.062006,218.581853 302.948345,226.785134 292.925307,227.638275 C292.355681,227.688123 291.789707,227.771403 291.230508,227.887655 C289.766202,228.182973 286.691838,228.268287 288.61374,223.17569 Z" id="Path" fill="#000000" fill-rule="nonzero" opacity="0.1"></path>
                <path d="M288.615499,223.175969 C288.615499,223.175969 289.564553,216.24952 295.18431,214.694268 C295.18431,214.694268 314.307754,209.339476 318.470034,209.260729 C318.470034,209.260729 322.774673,207.981091 325.621836,211.091595 L328.543568,214.90754 C328.543568,214.90754 330.577255,218.014764 326.059079,218.582398 C326.059079,218.582398 302.949608,226.785204 292.926917,227.638296 C292.357296,227.68802 291.791334,227.771296 291.232177,227.887661 C289.764532,228.182962 286.690274,228.268271 288.615499,223.175969 Z" id="Path" fill="#F0F0F4" fill-rule="nonzero"></path>
                <path d="M291.568741,221.941471 C291.568741,221.941471 292.450866,216.107769 297.652367,214.798821 C297.652367,214.798821 315.382757,210.274066 319.2391,210.219123 C319.2391,210.219123 323.230634,209.142877 325.870252,211.760771 L328.574086,214.97658 C328.574086,214.97658 330.466769,217.597706 326.272447,218.072805 C326.272447,218.072805 304.847944,224.989217 295.556896,225.703482 C295.033891,225.746071 294.51374,225.816203 293.998811,225.91356 C292.636755,226.14303 289.78759,226.227061 291.568741,221.941471 Z" id="Path" fill="#000000" fill-rule="nonzero" opacity="0.1"></path>
                <path d="M291.57045,221.929566 C291.57045,221.929566 292.449156,216.118351 297.653799,214.794685 C297.653799,214.794685 315.383379,210.274851 319.239546,210.219967 C319.239546,210.219967 323.230898,209.141664 325.870395,211.759939 L328.574105,214.988392 C328.574105,214.988392 330.466702,217.603439 326.272572,218.08125 C326.272572,218.08125 304.845668,224.99014 295.555043,225.703628 C295.0343,225.746171 294.516423,225.816228 294.00379,225.913477 C292.635036,226.145926 289.786002,226.216952 291.57045,221.929566 Z" id="Path" fill="#636780" fill-rule="nonzero"></path>
                <path d="M293.037284,217 L293,216.740517 C293.260989,216.713362 319.23112,213.840948 324.820358,210 L325,210.205172 C319.346362,214.082328 294.108357,216.876293 293.037284,217 Z" id="Path" fill="#F0F0F4" fill-rule="nonzero"></path>
                <path d="M291.050593,222 L291,221.725314 C291.283319,221.67684 319.713019,216.632316 325.844849,213 L326,213.235907 C319.82095,216.897307 291.337284,221.948294 291.050593,222 Z" id="Path" fill="#F0F0F4" fill-rule="nonzero"></path>
                <path d="M291.054988,225 L291,224.720652 C291.343674,224.657466 324.680022,218.568341 328.804106,215 L329,215.212837 C324.831238,218.834386 292.429683,224.750582 291.054988,225 Z" id="Path" fill="#F0F0F4" fill-rule="nonzero"></path>
                <path d="M324.92766,224.646933 C324.92766,224.646933 312.505601,229.689052 299.44477,231.950567 C298.289546,232.153353 297.14678,232.404633 296.016472,232.704405 C294.691362,233.054873 292.809026,233.45163 291.786313,233.193738 C290.104442,232.763918 289.173467,234.757622 290.991247,236.324812 L291.106769,236.424001 C292.434176,237.560282 294.179962,238.121382 295.941723,237.977966 L298.738045,237.74983 C298.738045,237.74983 321.424612,232.909396 327.751164,229.133592 C327.751164,229.133592 330.639225,227.206015 330.860076,225.037077 C331.080928,222.868139 331.342552,221.158778 329.05249,222.441625 C326.762428,223.724473 324.92766,224.646933 324.92766,224.646933 Z" id="Path" fill="#000000" fill-rule="nonzero" opacity="0.1"></path>
                <path d="M325.921989,224.619722 C325.460036,224.805289 313.269226,229.70958 300.446626,231.93308 C299.291743,232.134112 298.149314,232.385954 297.019341,232.688606 C295.698018,233.039859 293.812842,233.437504 292.79043,233.179035 C291.092073,232.748253 290.178356,234.74642 291.995599,236.317118 L292.049946,236.36351 C293.415418,237.542595 295.215747,238.125645 297.032927,237.977287 L299.723126,237.758582 L299.767283,237.758582 C300.545131,237.592897 322.525274,232.850978 328.741263,229.142936 L328.76504,229.142936 C328.958653,229.007074 331.648851,227.138141 331.859447,225.043877 C332.080234,222.870083 332.345178,221.156895 330.052395,222.442614 C327.8751,223.66206 326.112205,224.563389 325.949163,224.646231 L325.921989,224.619722 Z" id="Path" fill="#F0F0F4" fill-rule="nonzero"></path>
                <path d="M322.953334,226.113724 C322.953334,226.113724 312.873472,230.235503 302.05106,232.577122 C300.975875,232.808312 299.910769,233.079134 298.852384,233.37968 C297.793998,233.680227 296.282019,234.040222 295.44203,233.934535 C294.00397,233.746281 293.318539,235.156537 294.931317,236.104414 L294.981717,236.134138 C296.202436,236.850834 297.635949,237.135216 299.043901,236.939999 L301.536987,236.609728 C301.536987,236.609728 320.416568,231.9397 325.557298,228.993685 C325.557298,228.993685 327.909266,227.510769 327.969745,226.021248 C328.030224,224.531727 328.178062,223.379082 326.313287,224.369894 C324.448513,225.360706 322.953334,226.113724 322.953334,226.113724 Z" id="Path" fill="#000000" fill-rule="nonzero" opacity="0.1"></path>
                <path d="M323.97105,226.106146 C323.755851,226.195426 313.769281,230.256014 303.059777,232.577294 C301.983782,232.808761 300.914513,233.079908 299.855331,233.380814 C298.79615,233.681721 297.286395,234.042148 296.442413,233.936335 C295.00327,233.747854 294.317324,235.156495 295.934678,236.108815 L295.934678,236.108815 C297.187281,236.84575 298.658724,237.138654 300.104155,236.938789 L302.531867,236.608122 L302.531867,236.608122 C302.921915,236.512228 321.462639,231.906041 326.560161,229.002787 L326.560161,229.002787 C326.640861,228.94988 328.913898,227.49164 328.97106,226.026786 C329.028223,224.561932 329.179534,223.364919 327.313357,224.373452 C325.44718,225.381986 324.034937,226.079693 323.950875,226.119373 L323.97105,226.106146 Z" id="Path" fill="#636780" fill-rule="nonzero"></path>
                <ellipse id="Oval" fill="#000000" fill-rule="nonzero" opacity="0.1" transform="translate(279.632116, 238.154468) rotate(-87.137595) translate(-279.632116, -238.154468) " cx="279.632116" cy="238.154468" rx="3.84519217" ry="2.8484869"></ellipse>
                <ellipse id="Oval" fill="#F0F0F4" fill-rule="nonzero" transform="translate(279.552976, 238.137097) rotate(-87.150000) translate(-279.552976, -238.137097) " cx="279.552976" cy="238.137097" rx="3.84039459" ry="2.84493302"></ellipse>
                <path d="M296.71627,241.127441 C296.71627,241.127441 282.289453,243.328997 278.463139,243.54322 C274.636825,243.757443 274.061068,245.883197 274.061068,245.883197 C274.061068,245.883197 273.139858,251.278327 278.453269,249.716145 L297.298607,247.587096 C297.298607,247.587096 299.851676,247.659602 299.851676,244.179298 L299.851676,243.398207 C299.859318,242.961356 299.903338,242.525906 299.983278,242.096389 C300.085269,241.552592 299.805616,240.669333 296.71627,241.127441 Z" id="Path" fill="#000000" fill-rule="nonzero" opacity="0.1"></path>
                <path d="M296.705942,241.127441 C296.705942,241.127441 282.279416,243.328997 278.453179,243.539924 C274.626942,243.750852 274.061067,245.883197 274.061067,245.883197 C274.061067,245.883197 273.139875,251.278327 278.453179,249.716145 L297.301427,247.587096 C297.301427,247.587096 299.851155,247.659602 299.851155,244.179298 L299.851155,243.398207 C299.858797,242.961356 299.902816,242.525906 299.982754,242.096389 C300.088033,241.552592 299.795226,240.669333 296.705942,241.127441 Z" id="Path" fill="#F0F0F4" fill-rule="nonzero"></path>
                <path d="M336.467189,230.533975 C336.098128,230.818237 335.777356,231.518231 335.529016,232.349697 L335.529016,232.349697 L330.631198,235.924288 C330.509466,236.013022 330.349933,236.024651 330.217286,235.954458 C330.084639,235.884266 330.000891,235.743902 330,235.590281 L330,231.838026 C329.999454,230.744005 330.555839,229.729816 331.465897,229.165965 L336.563766,226 C336.825903,227.005576 337.446753,229.777128 336.467189,230.533975 Z" id="Path" fill="#F0F0F4" fill-rule="nonzero"></path>
                <path d="M302.225749,242.372491 L302.007284,246.225736 C301.951143,247.003351 302.221739,247.766731 302.742975,248.301198 C303.264211,248.835664 303.979781,249.083483 304.688452,248.974961 C312.693207,247.583264 320.388187,244.570482 327.375774,240.092294 L327.99476,232.219842 C328.031264,231.829099 327.875191,231.446507 327.584567,231.214306 C327.293942,230.982104 326.912234,230.935023 326.581354,231.090567 C322.609252,233.020797 311.960709,237.967237 305.201516,238.912509 C303.579993,239.14579 302.33471,240.593706 302.225749,242.372491 L302.225749,242.372491 Z" id="Path" fill="#636780" fill-rule="nonzero"></path>
                <path d="M304,238.997872 L304,245 C304,245 322.007969,240.636702 326,237.694415 L326,232 C318.98743,235.284441 311.594173,237.636126 304,238.997872 Z" id="Path" fill="#4B5B8C" fill-rule="nonzero"></path>
                <path d="M336.002888,226 C334.890628,225.936877 334,224.392027 334,222.501661 C334,220.611296 334.927567,219 336.052139,219 C336.41647,219.013347 336.757284,219.149477 336.992019,219.375415 C337.082313,221.843854 336.384586,224.654485 336.002888,226 Z" id="Path" fill="#4B5B8C" fill-rule="nonzero"></path>
                <path d="M335.996938,226 C334.885705,225.940199 334,224.395349 334,222.504983 C334,220.614618 334.92261,219 336.050244,219 C336.415693,219.015266 336.757061,219.152353 336.993356,219.378738 C337.075366,221.847176 336.378283,224.657807 335.996938,226 Z" id="Path" fill="#F0F0F4" fill-rule="nonzero"></path>
                <path d="M253,250.979512 C253,283.299979 239.482009,284 221.85117,284 C207.765423,284 202,269.217612 202,250.979512 C202,232.741411 206.525147,218 220.607514,218 C234.689881,218 253,232.744826 253,250.979512 Z" id="Path" fill="#636780" fill-rule="nonzero"></path>
                <path d="M253,250.979512 C253,283.299979 239.482009,284 221.85117,284 C207.765423,284 202,269.217612 202,250.979512 C202,232.741411 206.525147,218 220.607514,218 C234.689881,218 253,232.744826 253,250.979512 Z" id="Path" fill="#000000" fill-rule="nonzero" opacity="0.2"></path>
                <ellipse id="Oval" fill="#636780" fill-rule="nonzero" cx="219.5" cy="251" rx="17.5" ry="33"></ellipse>
                <path d="M66,231.945658 C66,241.964332 63.1143036,250 57.1196127,250 C51.1249219,250 44,241.871055 44,231.845472 C44,221.819888 46.4906309,213 52.4853217,213 C58.4800125,213 66,221.920075 66,231.945658 Z" id="Path" fill="#F0F0F4" fill-rule="nonzero"></path>
                <path d="M66,230.841127 C66,231.569769 65.9790847,232.285164 65.9372542,232.987311 C65.8504421,234.833874 65.5654466,236.667193 65.0867002,238.458755 C64.1001969,241.995984 62.2979984,244.453497 59.669647,244.920491 C59.3603067,244.97425 59.0464171,245.000858 58.731946,245 C57.3420801,244.957253 55.993336,244.541578 54.8417071,243.80103 C52.3353614,242.284129 50.0242248,239.452358 48.8494842,235.911817 C48.4101503,234.611017 48.1397344,233.264089 48.0442465,231.900971 C48.0163595,231.530025 48.002416,231.152456 48.002416,230.774886 C47.9710166,228.158553 48.2457635,225.547009 48.8215971,222.988346 C49.1496851,221.430342 49.7481192,219.935006 50.5924228,218.563497 C51.6660729,216.957172 53.0917967,216 54.9183964,216 C56.2852178,216.053197 57.6073934,216.477303 58.7284602,217.222133 C60.4034954,218.306532 61.8270847,219.70533 62.9115128,221.33234 C64.8828553,224.15341 65.9552727,227.455152 66,230.841127 Z" id="Path" fill="#636780" fill-rule="nonzero"></path>
                <path d="M66,232.907941 C65.9140667,234.764558 65.6298907,236.608014 65.1518692,238.409785 C65.0257009,238.272906 61.5630841,234.460342 58.9626168,236.907461 C57.0525701,238.700234 58.661215,242.783216 59.7056075,244.919855 C59.3945992,244.974044 59.0790172,245.000865 58.7628505,245 C57.3654904,244.956911 56.009474,244.537912 54.8516355,243.791443 L54.8516355,243.517686 C54.8516355,243.517686 56.3901869,238.950621 52.286215,236.136268 C52.286215,236.136268 50.2920561,235.381767 48.8095794,235.835803 C48.3678767,234.5246 48.0960027,233.166901 48,231.792883 C48.3504673,231.529141 50.7511682,229.569443 49.7698598,225.877065 C49.5048337,224.836541 49.1748069,223.812024 48.7815421,222.808986 C49.1176039,221.239813 49.7251856,219.734777 50.5794393,218.35543 C50.5794393,218.35543 51.3679907,222.431735 54.385514,222.675446 C57.4030374,222.919156 58.7207944,217.160248 58.7593458,217 C60.4434127,218.093071 61.874678,219.503055 62.9649533,221.143075 C62.9649533,221.143075 58.146028,223.052696 59.5514019,228.133889 C60.5817757,231.73279 64.0724299,232.670907 66,232.907941 Z" id="Path" fill="#F0F0F4" fill-rule="nonzero"></path>
                <ellipse id="Oval" fill="#636780" fill-rule="nonzero" transform="translate(55.674220, 230.136416) rotate(-8.049062) translate(-55.674220, -230.136416) " cx="55.6742195" cy="230.136416" rx="2.19536384" ry="3.80253814"></ellipse>
                <path d="M222,251.534746 C222,263.453412 219.5077,273 214.331386,273 C209.155072,273 203,263.336865 203,251.404487 C203,239.47211 205.152593,229 210.328908,229 C215.505222,229 222,239.61608 222,251.534746 Z" id="Path" fill="#F0F0F4" fill-rule="nonzero"></path>
                <path d="M222,251.922028 C222,252.81168 221.981271,253.675754 221.943817,254.51425 C221.865962,256.726692 221.612425,258.930393 221.185369,261.106568 C220.311047,265.376894 218.727436,268.339434 216.371331,268.906587 C216.09871,268.968405 215.819422,269 215.539145,269 C214.408496,269 213.221665,268.486226 212.083993,267.552092 C209.843762,265.720522 207.800166,262.284244 206.743255,258.027261 C206.355873,256.437102 206.120825,254.816882 206.040988,253.186446 C206.016409,252.739396 206.002364,252.285673 206.002364,251.825279 C205.973,248.679936 206.217284,245.537668 206.732721,242.43056 C207.017785,240.592247 207.556126,238.797549 208.333889,237.092651 C209.288972,235.154323 210.556563,234 212.178799,234 C213.270824,234 214.433075,234.530455 215.563724,235.474597 C216.915588,236.605567 218.218292,238.323706 219.29276,240.435516 C221.076845,244.027434 222.001401,247.950225 222,251.922028 L222,251.922028 Z" id="Path" fill="#636780" fill-rule="nonzero"></path>
                <path d="M222,254.310647 C221.926565,256.554186 221.687422,258.788861 221.28461,260.995622 C221.181939,260.826468 218.30382,256.198408 216.124531,259.168756 C214.534776,261.347463 215.87282,266.303682 216.743873,268.905274 C216.486729,268.967961 216.223297,269 215.958931,269 C214.892471,269 213.773018,268.479005 212.699934,267.531741 L212.699934,267.193433 C212.699934,267.193433 213.981674,261.648557 210.560389,258.231642 C210.560389,258.231642 208.904394,257.314826 207.662398,257.866269 C207.297009,256.253758 207.075304,254.610766 207,252.957413 C207.291455,252.63602 209.291897,250.250945 208.473835,245.775124 C208.162508,244.083582 207.884301,242.875821 207.652462,242.053731 C207.921343,240.18958 208.429121,238.369657 209.162729,236.640796 C209.162729,236.640796 209.825127,241.593632 212.335615,241.884577 C214.846103,242.175522 215.948995,235.192836 215.978803,235 C217.253919,236.146866 218.482667,237.889154 219.496136,240.030647 C219.496136,240.030647 215.478693,242.351443 216.651137,248.518806 C217.475822,252.906667 220.387061,254.029851 222,254.310647 Z" id="Path" fill="#F0F0F4" fill-rule="nonzero"></path>
                <ellipse id="Oval" fill="#636780" fill-rule="nonzero" transform="translate(212.241941, 251.263937) rotate(-4.680000) translate(-212.241941, -251.263937) " cx="212.241941" cy="251.263937" rx="1.94419939" ry="4.53990197"></ellipse>
                <g id="Group"></g>
                <path d="M262,201.733768 L261.880717,202 C261.764841,201.94608 251.61553,197.618962 213.97992,191.303527 C212.221342,191.009211 210.403691,190.709279 208.526965,190.403729 C208.353152,190.380139 208.186156,190.349809 208.005527,190.322849 C201.98342,189.35228 195.334224,188.344642 188,187.289823 L188.040897,187 C197.975499,188.415412 206.649104,189.763424 214.215079,191.044035 C251.755262,197.35273 261.880717,201.683217 262,201.733768 Z" id="Path" fill="#000000" fill-rule="nonzero" opacity="0.2"></path>
                <path d="M71,145.095624 C71,145.095624 74.4069737,139.319846 86.0656375,138.806821 C86.0656375,138.806821 171.274049,127.707135 225.070163,139.241703 C225.070163,139.241703 229.662764,141.280213 224.678361,142.476139 C219.693959,143.672065 105.141283,147.806842 71,145.095624 Z" id="Path" fill="#000000" fill-rule="nonzero" opacity="0.1"></path>
                <path d="M71,145.095693 C71,145.095693 74.4069737,139.320358 86.0656375,138.803975 C86.0656375,138.803975 171.274049,127.708537 225.070163,139.242221 C225.070163,139.242221 229.662764,141.280575 224.678361,142.476409 C219.693959,143.672243 105.141283,147.806704 71,145.095693 Z" id="Path" fill="#FFFFFF" fill-rule="nonzero"></path>
                <path d="M63.5438968,168.753362 C68.9073163,156.213352 75.3448012,150.282915 77.3824172,148.626234 C77.7830649,148.30207 78.2816984,148.12089 78.7983876,148.111737 L107.055631,147.59038 C107.831614,147.573214 108.563521,147.947641 109,148.585074 C108.685491,147.624478 107.775494,146.981111 106.758622,147.000423 L78.5013791,147.52178 C77.9842893,147.528785 77.4849673,147.710216 77.0854088,148.036277 C75.0477928,149.689528 68.6103079,155.619965 63.2468883,168.159976 C62.8456803,169.087873 62.9376841,170.153486 63.492093,171 C63.2175607,170.272413 63.2361159,169.467705 63.5438968,168.753362 L63.5438968,168.753362 Z" id="Path" fill="#000000" fill-rule="nonzero" opacity="0.1"></path>
                <path d="M113.781816,170.77172 L117.544467,153.322602 C118.219383,150.16475 120.777311,147.926359 123.72669,147.898809 L159.287967,147.554442 C160.643538,147.544948 161.95861,148.025628 163,148.911251 C161.899144,147.69043 160.346789,146.997055 158.721038,147 L123.159761,147.344377 C120.207008,147.37537 117.655828,149.613761 116.977539,152.771614 L113.198014,170.217287 C112.551233,173.08476 113.515468,176.081789 115.701949,178 C113.92477,176.065799 113.205214,173.357053 113.781816,170.77172 L113.781816,170.77172 Z" id="Path" fill="#000000" fill-rule="nonzero" opacity="0.1"></path>
                <path d="M190.932926,177.299424 L178.101715,151.240355 C177.732548,150.489707 177.778657,149.606596 178.224078,148.896773 C178.6695,148.18695 179.453,147.747996 180.303317,147.731885 C190.076366,147.55663 215.762868,146.838758 229,143.990865 C228.167519,143.35388 227.689359,143 227.689359,143 C214.617347,145.949002 188.359804,146.683725 178.449155,146.85898 C177.598839,146.875091 176.815338,147.314046 176.369917,148.023869 C175.924495,148.733692 175.878386,149.616802 176.247553,150.36745 L189.082205,176.416408 C190.139698,178.567823 192.028964,180.21745 194.331649,181 C192.864517,180.105989 191.686067,178.822877 190.932926,177.299424 Z" id="Path" fill="#000000" fill-rule="nonzero" opacity="0.1"></path>
                <rect id="Rectangle" fill="#4B5B8C" fill-rule="nonzero" x="190" y="249" width="6" height="1"></rect>
                <rect id="Rectangle" fill="#000000" fill-rule="nonzero" opacity="0.2" x="190" y="249" width="6" height="1"></rect>
                <path d="M83.1315906,232 L77,232.596557 C77.0377458,232.716265 77.0969784,232.833497 77.1767833,232.946443 C77.2977404,233.121386 84,232.811737 84,232.811737 L83.3548959,232.736511 L83.1315906,232 Z" id="Path" fill="#4B5B8C" fill-rule="nonzero"></path>
                <path d="M83.1315906,232 L77,232.596557 C77.0377458,232.716265 77.0969784,232.833497 77.1767833,232.946443 C77.2977404,233.121386 84,232.811737 84,232.811737 L83.3548959,232.736511 L83.1315906,232 Z" id="Path" fill="#000000" fill-rule="nonzero" opacity="0.2"></path>
                <path d="M58.1136364,248.913653 C52.1681818,248.913653 45.0943182,240.950493 45.0943182,231.129375 C45.0943182,224.398085 46.2568182,218.21843 48.9022727,215 C45.4931818,217.731096 44,224.618062 44,232.215722 C44,242.030072 51.0738636,250 57.0193182,250 C59.0306818,250 60.6840909,249.099787 62,247.529491 C60.9101441,248.432513 59.5331991,248.922924 58.1136364,248.913653 Z" id="Path" fill="#000000" fill-rule="nonzero" opacity="0.1"></path>
                <path d="M215.544839,272.663499 C210.258883,272.663499 203.971235,262.882116 203.971235,250.815525 C203.971235,242.543764 204.986464,234.954103 207.35533,231 C204.309645,234.355101 203,242.817296 203,252.152025 C203,264.218617 209.287648,274 214.573604,274 C216.360406,274 217.832487,272.89202 219,270.966906 C218.018613,272.061036 216.86802,272.663499 215.544839,272.663499 Z" id="Path" fill="#000000" fill-rule="nonzero" opacity="0.1"></path>
                <ellipse id="Oval" fill="#000000" fill-rule="nonzero" opacity="0.1" transform="translate(266.401998, 214.114963) rotate(-45.000000) translate(-266.401998, -214.114963) " cx="266.401998" cy="214.114963" rx="8.74457537" ry="17.0712786"></ellipse>
                <ellipse id="Oval" fill="#DCE0ED" fill-rule="nonzero" transform="translate(266.694310, 213.824227) rotate(-45.000000) translate(-266.694310, -213.824227) " cx="266.69431" cy="213.824227" rx="8.74457537" ry="17.0712786"></ellipse>
                <ellipse id="Oval" fill="#000000" fill-rule="nonzero" opacity="0.1" transform="translate(267.532573, 213.570618) rotate(-45.000000) translate(-267.532573, -213.570618) " cx="267.532573" cy="213.570618" rx="6.41065131" ry="14.4859565"></ellipse>
                <ellipse id="Oval" fill="#F0F0F4" fill-rule="nonzero" transform="translate(267.533214, 213.275845) rotate(-45.000000) translate(-267.533214, -213.275845) " cx="267.533214" cy="213.275845" rx="6.41065131" ry="14.4859565"></ellipse>
                <path d="M368.731848,270.018992 C368.731848,270.018992 354.456205,269.138289 356.137679,279.371707 C356.137679,279.371707 355.800033,281.178011 357.407225,282 C357.407225,282 357.43086,281.243632 358.872605,281.499208 C359.384404,281.587545 359.904685,281.613053 360.422397,281.575191 C361.122475,281.527203 361.787859,281.245737 362.316587,280.773924 L362.316587,280.773924 C362.316587,280.773924 366.33119,279.07814 367.891111,272.370985 C367.891111,272.370985 369.045858,270.906602 368.998587,270.530144 L366.591176,271.566265 C366.591176,271.566265 367.415031,273.344939 366.766752,274.823138 C366.766752,274.823138 366.689094,271.631886 366.22652,271.714776 C366.131979,271.714776 364.973856,272.329541 364.973856,272.329541 C364.973856,272.329541 366.391966,275.437903 365.311501,277.675923 C365.311501,277.675923 365.716675,273.876814 364.521411,272.554033 L362.833185,273.565978 C362.833185,273.565978 364.487646,276.764137 363.366664,279.375161 C363.366664,279.375161 363.653663,275.372282 362.475281,273.811193 L360.938994,275.037269 C360.938994,275.037269 362.495539,278.19053 361.546756,280.356022 C361.546756,280.356022 361.421827,275.696933 360.604726,275.344652 C360.604726,275.344652 359.254145,276.556913 359.05831,277.054251 C359.05831,277.054251 360.121893,279.340624 359.460108,280.549431 C359.460108,280.549431 359.054934,277.441069 358.724041,277.441069 C358.724041,277.441069 357.37346,279.51331 357.245155,280.894805 C357.245155,280.894805 357.302555,278.798387 358.399902,277.230391 C357.62745,277.380297 356.914902,277.758534 356.350395,278.318318 C356.350395,278.318318 356.556359,276.864295 358.713912,276.736507 C358.713912,276.736507 359.821389,275.175419 360.11514,275.082168 C360.11514,275.082168 357.95421,274.895666 356.644147,275.489709 C356.644147,275.489709 357.798893,274.108214 360.513561,274.740248 L362.029589,273.476181 C362.029589,273.476181 359.183239,273.075547 357.977845,273.517626 C357.977845,273.517626 359.365567,272.301911 362.43814,273.172252 L364.089225,272.163761 C364.089225,272.163761 361.664932,271.628432 360.21981,271.818388 C360.21981,271.818388 361.74259,270.975676 364.575434,271.887462 L365.753816,271.345226 C365.753816,271.345226 363.977802,270.999852 363.457828,270.934231 C362.937855,270.86861 362.907466,270.730461 362.907466,270.730461 C364.03349,270.538432 365.189524,270.669953 366.246778,271.110372 C366.246778,271.110372 368.772365,270.181317 368.731848,270.018992 Z" id="Path" fill="#4B5B8C" fill-rule="nonzero"></path>
                <ellipse id="Oval" fill="#4B5B8C" fill-rule="nonzero" opacity="0.1" cx="358.5" cy="282.5" rx="10.5" ry="1.5"></ellipse>
                <ellipse id="Oval" fill="#4B5B8C" fill-rule="nonzero" opacity="0.1" cx="391" cy="250.5" rx="6" ry="1"></ellipse>
                <path d="M348.796918,249.010984 C348.796918,249.010984 338.933297,248.499088 340.095134,254.46431 C339.972231,255.086144 340.326216,255.705733 340.972509,256 C340.972509,256 340.989646,255.556159 342.000684,255.704106 C342.35493,255.75579 342.715066,255.770691 343.073413,255.74849 C343.556999,255.719382 344.016508,255.555293 344.382622,255.280978 L344.382622,255.280978 C344.382622,255.280978 347.155266,254.292692 348.234849,250.380973 C348.234849,250.380973 349.02997,249.52584 348.999125,249.306878 L347.33691,249.919379 C347.33691,249.919379 347.902406,250.957967 347.456863,251.819018 C347.456863,251.819018 347.402027,249.957845 347.083293,250.002229 C347.018176,250.002229 346.219627,250.360261 346.219627,250.360261 C346.219627,250.360261 347.196393,252.168173 346.459534,253.478983 C346.459534,253.478983 346.737141,251.253861 345.911174,250.493413 L344.742483,251.085201 C344.742483,251.085201 345.883756,252.952292 345.109198,254.473187 C345.109198,254.473187 345.307979,252.138584 344.495721,251.218353 L343.433274,251.931458 C343.433274,251.931458 344.506003,253.771918 343.851398,255.032427 C343.851398,255.032427 343.765717,252.31612 343.203648,252.108994 C343.203648,252.108994 342.274864,252.816181 342.130919,253.109116 C342.130919,253.109116 342.867778,254.443598 342.411954,255.147825 C342.411954,255.147825 342.130919,253.336954 341.901294,253.328077 C341.901294,253.328077 340.975937,254.511653 340.873119,255.349033 C340.919312,254.589034 341.194575,253.852622 341.671668,253.212679 C341.137597,253.300504 340.644626,253.520505 340.252787,253.845892 C340.252787,253.845892 340.396732,252.999635 341.897867,252.925662 C341.897867,252.925662 342.66557,252.014308 342.867778,251.958088 C342.867778,251.958088 341.376925,251.851566 340.468704,252.197762 C340.468704,252.197762 341.267253,251.398849 343.141958,251.762798 L344.190696,251.023063 C344.190696,251.023063 342.223455,250.789307 341.390634,251.046735 C341.390634,251.046735 342.350263,250.339548 344.475157,250.854404 L345.616431,250.262616 C345.616431,250.262616 343.940507,249.951927 342.943177,250.064367 C342.943177,250.064367 343.995343,249.573183 345.952301,250.105792 L346.767987,249.789186 C346.767987,249.789186 345.541032,249.579101 345.181171,249.546552 C344.821309,249.514004 344.800746,249.428195 344.800746,249.428195 C345.578564,249.316448 346.377043,249.393272 347.107284,249.650115 C347.107284,249.650115 348.838045,249.10567 348.796918,249.010984 Z" id="Path" fill="#4B5B8C" fill-rule="nonzero"></path>
                <ellipse id="Oval" fill="#4B5B8C" fill-rule="nonzero" opacity="0.1" cx="341.5" cy="257.5" rx="6.5" ry="1.5"></ellipse>
                <ellipse id="Oval" fill="#4B5B8C" fill-rule="nonzero" opacity="0.1" cx="22.5" cy="267.5" rx="10.5" ry="1.5"></ellipse>
                <path d="M15,259.856936 C15,259.856936 20.9098393,259.695617 22.6938763,258.557078 C24.4779134,257.418539 31.7872691,256.075248 32.2306803,257.886984 C32.6740914,259.69872 41.1162241,266.951867 34.4408078,266.998401 C27.7653914,267.044936 18.9318098,266.067715 17.1512369,265.096699 C15.370664,264.125683 15,259.856936 15,259.856936 Z" id="Path" fill="#A8A8A8" fill-rule="nonzero"></path>
                <path d="M34.563273,266.384139 C27.8874404,266.42974 19.0533079,265.472119 17.2760883,264.520579 C15.9215213,263.797043 15.3810802,261.197786 15.1974688,260 L15,260 C15,260 15.3741515,264.186171 17.1513711,265.134672 C18.9285907,266.083173 27.7661876,267.046874 34.4420202,266.998233 C36.3682076,266.998233 37.0333658,266.390219 36.9987221,265.478199 C36.731966,266.037572 35.9975204,266.371979 34.563273,266.384139 Z" id="Path" fill="#000000" fill-rule="nonzero" opacity="0.2"></path>
                <g id="Group" opacity="0.1" transform="translate(216.000000, 172.000000)" fill="url(#linearGradient-1)" fill-rule="nonzero">
                    <path d="M2.53607143,16.1966038 C2.40428571,16.4513208 1.45928571,17.0490566 0.308571429,17.7079245 C0.2025,16.8215094 0.125357143,16.1524528 0.109285714,15.945283 C0.0417857143,15.1879245 1.57178571,11.7950943 1.57178571,11.7950943 C1.57178571,11.7950943 4.5,7.64490566 4.4325,7.02 C4.365,6.39509434 5.56392857,4.60188679 5.56392857,4.60188679 L8.21892857,0.0543396226 C7.91959641,0.761332126 8.02546898,1.58650359 8.49214286,2.18377358 C9.2925,3.2909434 8.62392857,5.50528302 8.62392857,5.50528302 L8.78785714,8.29698113 L8.78785714,8.5754717 C8.69464286,8.67396226 8.26714286,9.10528302 7.32214286,10.005283 C6.45107143,10.8339623 6.60535714,11.0886792 6.705,11.1566038 C6.50571429,11.5301887 6.75,11.594717 6.75,11.594717 C6.82714286,11.594717 6.90428571,11.5879245 6.98142857,11.5743396 L6.76928571,11.7815094 C5.14928571,13.3845283 2.77392857,15.7449057 2.53607143,16.1966038 Z" id="Path"></path>
                </g>
                <g id="Group" opacity="0.1" transform="translate(197.000000, 135.000000)" fill="#000000" fill-rule="nonzero">
                    <path d="M4.14,5.20447761 L3.55333333,5.04029851 C3.73430623,5.13672879 3.934591,5.19277863 4.14,5.20447761 L4.14,5.20447761 Z" id="Path"></path>
                    <path d="M4.14,5.20447761 L4.80666667,5.38835821 C4.68988532,5.30842767 4.56332968,5.24333618 4.43,5.19462687 C4.33367734,5.20446203 4.23678161,5.20775339 4.14,5.20447761 Z" id="Path"></path>
                    <path d="M25.5333333,20.5125373 C24.5866667,20.6964179 23.5933333,20.8179104 22.6733333,20.5289552 C21.5133333,20.161194 20.6466667,19.179403 20.0866667,18.1089552 C19.5933471,17.1603173 19.2964776,16.1245044 19.2133333,15.061791 C19.05,12.9438806 19.7233333,10.6749254 18.7733333,8.76716418 C18.5993017,8.38013447 18.3157755,8.05068107 17.9566667,7.81820896 C17.5366667,7.57522388 17.03,7.54567164 16.5633333,7.40447761 C15.7633333,7.15492537 15.12,6.57373134 14.5066667,6.01223881 L12.3,3.99283582 C11.8048175,3.48370226 11.2240521,3.06268305 10.5833333,2.74835821 C9.41,2.25910448 8.02666667,2.53820896 6.91666667,3.15223881 C6.22,3.53641791 5.45,4.05522388 4.70333333,4.13731343 C4.83637073,4.18666849 4.96284782,4.25171958 5.08,4.33104478 L4.41333333,4.14716418 C4.20792433,4.1354652 4.00763956,4.07941535 3.82666667,3.98298507 L4.41333333,4.14716418 C4.50974184,4.15700612 4.60692483,4.15700612 4.70333333,4.14716418 C3.76333333,3.79253731 2.55,4.14716418 1.64666667,3.62835821 C1.15358554,3.31177555 0.786304044,2.83749328 0.606666667,2.28537313 C0.351810617,1.60589466 0.274998359,0.874082088 0.383333333,0.15761194 C-0.0181787896,1.17760002 -0.0335608616,2.30587765 0.34,3.3361194 C0.520554287,3.88690228 0.887711591,4.35986496 1.38,4.6758209 C2.28,5.1880597 3.49666667,4.84 4.43666667,5.19791045 C5.18,5.11910448 5.95333333,4.60029851 6.65,4.21283582 C7.76333333,3.59880597 9.14666667,3.31970149 10.3166667,3.80895522 C10.9573854,4.12328006 11.5381509,4.54429927 12.0333333,5.05343284 L14.24,7.0761194 C14.8533333,7.64089552 15.4966667,8.22208955 16.2966667,8.46835821 C16.76,8.61283582 17.27,8.64238806 17.69,8.88537313 C18.0490262,9.11704425 18.3316756,9.44682488 18.5033333,9.83432836 C19.4566667,11.738806 18.7833333,14.0110448 18.9466667,16.1289552 C19.0298109,17.1916686 19.3266804,18.2274815 19.82,19.1761194 C20.38,20.2432836 21.2466667,21.2283582 22.4066667,21.5928358 C23.3233333,21.8850746 24.32,21.7635821 25.2633333,21.5764179 C27.5646459,21.1263344 29.7795875,20.3218413 31.8266667,19.1925373 C31.6733333,18.9659701 31.5233333,18.7361194 31.3766667,18.5062687 C29.532375,19.4378331 27.5658763,20.113017 25.5333333,20.5125373 Z" id="Path"></path>
                    <path d="M27.9433333,5.50985075 C27.7524829,5.95947136 27.5964811,6.42268706 27.4766667,6.89552239 C27.4566667,6.99731343 27.4433333,7.10238806 27.4333333,7.2041791 C27.6803598,6.66473052 27.8519253,6.09475331 27.9433333,5.50985075 L27.9433333,5.50985075 Z" id="Path"></path>
                </g>
                <path d="M206.034724,157.30987 C205.050864,158.377669 203.251804,158.83394 201.874399,158.209736 C201.479294,157.981552 201.064505,157.78235 200.634032,157.61405 C199.699364,157.347892 198.722531,157.78832 197.75624,157.930904 C196.627444,158.096567 195.470975,157.870109 194.520041,157.297195 C194.349778,157.356999 194.1762,157.408821 194,157.452454 C195.021812,158.276933 196.404195,158.637258 197.75624,158.431535 C198.722531,158.276276 199.699364,157.835848 200.634032,158.11468 C201.063902,158.285329 201.47858,158.485538 201.874399,158.713535 C203.251804,159.347244 205.036809,158.8783 206.034724,157.8105 C206.73277,157.014976 207.072769,156.01148 206.986961,155 C206.953207,155.842251 206.619284,156.652258 206.034724,157.30987 L206.034724,157.30987 Z" id="Path" fill="#000000" fill-rule="nonzero" opacity="0.1"></path>
            </g>
        </g>
    </g>
</svg>